<svg width="394" height="372" viewBox="0 0 394 372" fill="none" xmlns="http://www.w3.org/2000/svg">
<path d="M356 57.5H38V65.5H356V57.5Z" fill="#202B52"/>
<path d="M356 49.5H38V57.5H356V49.5Z" fill="#3A4775"/>
<path d="M356 136H38V144H356V136Z" fill="#202B52"/>
<path d="M356 128H38V136H356V128Z" fill="#3A4775"/>
<path d="M356 217.6H38V225.6H356V217.6Z" fill="#202B52"/>
<path d="M356 209.6H38V217.6H356V209.6Z" fill="#3A4775"/>
<path d="M356 311.5H38V319.5H356V311.5Z" fill="#202B52"/>
<path d="M356 303.5H38V311.5H356V303.5Z" fill="#3A4775"/>
<path d="M99.7002 84.5C114.612 84.5 126.7 72.412 126.7 57.5C126.7 42.588 114.612 30.5 99.7002 30.5C84.7882 30.5 72.7002 42.588 72.7002 57.5C72.7002 72.412 84.7882 84.5 99.7002 84.5Z" fill="#3BCEFF"/>
<path d="M104.7 76.4999C89.8002 76.4999 77.7002 64.3999 77.7002 49.4999C77.7002 45.8999 78.4002 42.4999 79.7002 39.3999C75.4002 44.1999 72.7002 50.4999 72.7002 57.4999C72.7002 72.3999 84.8002 84.4999 99.7002 84.4999C111 84.4999 120.7 77.4999 124.7 67.5999C119.8 73.0999 112.7 76.4999 104.7 76.4999Z" fill="#2FAFDC"/>
<path d="M99.7002 84.5C114.612 84.5 126.7 72.412 126.7 57.5C126.7 42.588 114.612 30.5 99.7002 30.5C84.7882 30.5 72.7002 42.588 72.7002 57.5C72.7002 72.412 84.7882 84.5 99.7002 84.5Z" stroke="#202B52" stroke-width="6" stroke-miterlimit="10" stroke-linecap="round" stroke-linejoin="round"/>
<path d="M164.7 84.5C179.612 84.5 191.7 72.412 191.7 57.5C191.7 42.588 179.612 30.5 164.7 30.5C149.788 30.5 137.7 42.588 137.7 57.5C137.7 72.412 149.788 84.5 164.7 84.5Z" fill="#12B0FF"/>
<path d="M169.7 76.4999C154.8 76.4999 142.7 64.3999 142.7 49.4999C142.7 45.8999 143.4 42.4999 144.7 39.3999C140.4 44.1999 137.7 50.4999 137.7 57.4999C137.7 72.3999 149.8 84.4999 164.7 84.4999C176 84.4999 185.7 77.4999 189.7 67.5999C184.8 73.0999 177.7 76.4999 169.7 76.4999Z" fill="#129BE5"/>
<path d="M164.7 84.5C179.612 84.5 191.7 72.412 191.7 57.5C191.7 42.588 179.612 30.5 164.7 30.5C149.788 30.5 137.7 42.588 137.7 57.5C137.7 72.412 149.788 84.5 164.7 84.5Z" stroke="#202B52" stroke-width="6" stroke-miterlimit="10" stroke-linecap="round" stroke-linejoin="round"/>
<path d="M228.7 84.5C243.612 84.5 255.7 72.412 255.7 57.5C255.7 42.588 243.612 30.5 228.7 30.5C213.788 30.5 201.7 42.588 201.7 57.5C201.7 72.412 213.788 84.5 228.7 84.5Z" fill="#5392FF"/>
<path d="M233.7 76.4999C218.8 76.4999 206.7 64.3999 206.7 49.4999C206.7 45.8999 207.4 42.4999 208.7 39.3999C204.4 44.1999 201.7 50.4999 201.7 57.4999C201.7 72.3999 213.8 84.4999 228.7 84.4999C240 84.4999 249.7 77.4999 253.7 67.5999C248.8 73.0999 241.7 76.4999 233.7 76.4999Z" fill="#487FDF"/>
<path d="M228.7 84.5C243.612 84.5 255.7 72.412 255.7 57.5C255.7 42.588 243.612 30.5 228.7 30.5C213.788 30.5 201.7 42.588 201.7 57.5C201.7 72.412 213.788 84.5 228.7 84.5Z" stroke="#202B52" stroke-width="6" stroke-miterlimit="10" stroke-linecap="round" stroke-linejoin="round"/>
<path d="M197 163C211.912 163 224 150.912 224 136C224 121.088 211.912 109 197 109C182.088 109 170 121.088 170 136C170 150.912 182.088 163 197 163Z" fill="#F8D96B"/>
<path d="M203 156C188.1 156 176 143.9 176 129C176 124 177.4 119.2 179.8 115.2C173.8 120.2 170 127.6 170 136C170 150.9 182.1 163 197 163C206.9 163 215.5 157.7 220.2 149.8C215.6 153.7 209.6 156 203 156Z" fill="#F2B955"/>
<path d="M197 163C211.912 163 224 150.912 224 136C224 121.088 211.912 109 197 109C182.088 109 170 121.088 170 136C170 150.912 182.088 163 197 163Z" stroke="#202B52" stroke-width="6" stroke-miterlimit="10" stroke-linecap="round" stroke-linejoin="round"/>
<path d="M297.8 163C312.712 163 324.8 150.912 324.8 136C324.8 121.088 312.712 109 297.8 109C282.888 109 270.8 121.088 270.8 136C270.8 150.912 282.888 163 297.8 163Z" fill="#FC3A4D"/>
<path d="M303.8 156C288.9 156 276.8 143.9 276.8 129C276.8 124 278.2 119.2 280.6 115.2C274.6 120.2 270.8 127.6 270.8 136C270.8 150.9 282.9 163 297.8 163C307.7 163 316.3 157.7 321 149.8C316.3 153.7 310.3 156 303.8 156Z" fill="#E82E4A"/>
<path d="M297.8 163C312.712 163 324.8 150.912 324.8 136C324.8 121.088 312.712 109 297.8 109C282.888 109 270.8 121.088 270.8 136C270.8 150.912 282.888 163 297.8 163Z" stroke="#202B52" stroke-width="6" stroke-miterlimit="10" stroke-linecap="round" stroke-linejoin="round"/>
<path d="M99.7002 244.6C114.612 244.6 126.7 232.512 126.7 217.6C126.7 202.689 114.612 190.6 99.7002 190.6C84.7882 190.6 72.7002 202.689 72.7002 217.6C72.7002 232.512 84.7882 244.6 99.7002 244.6Z" fill="#87D14B"/>
<path d="M105.7 237.6C90.8002 237.6 78.7002 225.5 78.7002 210.6C78.7002 205.6 80.1002 200.8 82.5002 196.8C76.5002 201.8 72.7002 209.2 72.7002 217.6C72.7002 232.5 84.8002 244.6 99.7002 244.6C109.6 244.6 118.2 239.3 122.9 231.4C118.2 235.2 112.2 237.6 105.7 237.6Z" fill="#79BA3A"/>
<path d="M116.7 217.6C116.7 208.2 109.1 200.6 99.7002 200.6" stroke="white" stroke-width="3" stroke-miterlimit="10" stroke-linecap="round" stroke-linejoin="round"/>
<path d="M99.7002 244.6C114.612 244.6 126.7 232.512 126.7 217.6C126.7 202.689 114.612 190.6 99.7002 190.6C84.7882 190.6 72.7002 202.689 72.7002 217.6C72.7002 232.512 84.7882 244.6 99.7002 244.6Z" stroke="#202B52" stroke-width="6" stroke-miterlimit="10" stroke-linecap="round" stroke-linejoin="round"/>
<path d="M170 244.6C184.912 244.6 197 232.512 197 217.6C197 202.689 184.912 190.6 170 190.6C155.088 190.6 143 202.689 143 217.6C143 232.512 155.088 244.6 170 244.6Z" fill="#78D698"/>
<path d="M170 244.6C184.912 244.6 197 232.512 197 217.6C197 202.689 184.912 190.6 170 190.6C155.088 190.6 143 202.689 143 217.6C143 232.512 155.088 244.6 170 244.6Z" fill="#78D698"/>
<path d="M176 237.6C161.1 237.6 149 225.5 149 210.6C149 205.6 150.4 200.8 152.8 196.8C146.8 201.8 143 209.2 143 217.6C143 232.5 155.1 244.6 170 244.6C179.9 244.6 188.5 239.3 193.2 231.4C188.6 235.2 182.6 237.6 176 237.6Z" fill="#5BC47B"/>
<path d="M187 217.6C187 208.2 179.4 200.6 170 200.6" stroke="white" stroke-width="3" stroke-miterlimit="10" stroke-linecap="round" stroke-linejoin="round"/>
<path d="M170 244.6C184.912 244.6 197 232.512 197 217.6C197 202.689 184.912 190.6 170 190.6C155.088 190.6 143 202.689 143 217.6C143 232.512 155.088 244.6 170 244.6Z" stroke="#202B52" stroke-width="6" stroke-miterlimit="10" stroke-linecap="round" stroke-linejoin="round"/>
<path d="M141 338.5C155.912 338.5 168 326.412 168 311.5C168 296.588 155.912 284.5 141 284.5C126.088 284.5 114 296.588 114 311.5C114 326.412 126.088 338.5 141 338.5Z" fill="#E17555"/>
<path d="M147 331.5C132.1 331.5 120 319.4 120 304.5C120 299.5 121.4 294.7 123.8 290.7C117.8 295.7 114 303.1 114 311.5C114 326.4 126.1 338.5 141 338.5C150.9 338.5 159.5 333.2 164.2 325.3C159.6 329.2 153.6 331.5 147 331.5Z" fill="#E45E5B"/>
<path d="M158 311.5C158 302.1 150.4 294.5 141 294.5" stroke="white" stroke-width="3" stroke-miterlimit="10" stroke-linecap="round" stroke-linejoin="round"/>
<path d="M141 338.5C155.912 338.5 168 326.412 168 311.5C168 296.588 155.912 284.5 141 284.5C126.088 284.5 114 296.588 114 311.5C114 326.412 126.088 338.5 141 338.5Z" stroke="#202B52" stroke-width="6" stroke-miterlimit="10" stroke-linecap="round" stroke-linejoin="round"/>
<path d="M202.4 338.5C217.312 338.5 229.4 326.412 229.4 311.5C229.4 296.588 217.312 284.5 202.4 284.5C187.489 284.5 175.4 296.588 175.4 311.5C175.4 326.412 187.489 338.5 202.4 338.5Z" fill="#9E3B53"/>
<path d="M208.4 331.5C193.5 331.5 181.4 319.4 181.4 304.5C181.4 299.5 182.8 294.7 185.2 290.7C179.2 295.7 175.4 303.1 175.4 311.5C175.4 326.4 187.5 338.5 202.4 338.5C212.3 338.5 220.9 333.2 225.6 325.3C220.9 329.2 214.9 331.5 208.4 331.5Z" fill="#883042"/>
<path d="M219.4 311.5C219.4 302.1 211.8 294.5 202.4 294.5" stroke="white" stroke-width="3" stroke-miterlimit="10" stroke-linecap="round" stroke-linejoin="round"/>
<path d="M202.4 338.5C217.312 338.5 229.4 326.412 229.4 311.5C229.4 296.588 217.312 284.5 202.4 284.5C187.489 284.5 175.4 296.588 175.4 311.5C175.4 326.412 187.489 338.5 202.4 338.5Z" stroke="#202B52" stroke-width="6" stroke-miterlimit="10" stroke-linecap="round" stroke-linejoin="round"/>
<path d="M313.2 338.5C328.112 338.5 340.2 326.412 340.2 311.5C340.2 296.588 328.112 284.5 313.2 284.5C298.288 284.5 286.2 296.588 286.2 311.5C286.2 326.412 298.288 338.5 313.2 338.5Z" fill="#53325A"/>
<path d="M319.2 331.5C304.3 331.5 292.2 319.4 292.2 304.5C292.2 299.5 293.6 294.7 296 290.7C290 295.7 286.2 303.1 286.2 311.5C286.2 326.4 298.3 338.5 313.2 338.5C323.1 338.5 331.7 333.2 336.4 325.3C331.7 329.2 325.7 331.5 319.2 331.5Z" fill="#4A2D51"/>
<path d="M330.2 311.5C330.2 302.1 322.6 294.5 313.2 294.5" stroke="white" stroke-width="3" stroke-miterlimit="10" stroke-linecap="round" stroke-linejoin="round"/>
<path d="M313.2 338.5C328.112 338.5 340.2 326.412 340.2 311.5C340.2 296.588 328.112 284.5 313.2 284.5C298.288 284.5 286.2 296.588 286.2 311.5C286.2 326.412 298.288 338.5 313.2 338.5Z" stroke="#202B52" stroke-width="6" stroke-miterlimit="10" stroke-linecap="round" stroke-linejoin="round"/>
<path d="M21 368.8C11.1 368.8 3 360.7 3 350.8V21C3 11.1 11.1 3 21 3C30.9 3 39 11.1 39 21V350.8C39 360.7 31 368.8 21 368.8Z" fill="#FDBA4F"/>
<path d="M18 350.8V21C18 13.7 22.3 7.49998 28.5 4.69998C26.2 3.59998 23.7 3 21 3C11.1 3 3 11.1 3 21V350.8C3 360.7 11.1 368.8 21 368.8C23.7 368.8 26.2 368.2 28.5 367.1C22.3 364.3 18 358.1 18 350.8Z" fill="#E89D3A"/>
<path d="M373 368.8C363.1 368.8 355 360.7 355 350.8V21C355 11.1 363.1 3 373 3C382.9 3 391 11.1 391 21V350.8C391 360.7 383 368.8 373 368.8Z" fill="#FDBA4F"/>
<path d="M370 350.8V21C370 13.7 374.3 7.49998 380.5 4.69998C378.2 3.59998 375.7 3 373 3C363.1 3 355 11.1 355 21V350.8C355 360.7 363.1 368.8 373 368.8C375.7 368.8 378.2 368.2 380.5 367.1C374.3 364.3 370 358.1 370 350.8Z" fill="#E89D3A"/>
<path d="M21 368.8C11.1 368.8 3 360.7 3 350.8V21C3 11.1 11.1 3 21 3C30.9 3 39 11.1 39 21V350.8C39 360.7 31 368.8 21 368.8Z" stroke="#202B52" stroke-width="6" stroke-miterlimit="10" stroke-linecap="round" stroke-linejoin="round"/>
<path d="M373 368.8C363.1 368.8 355 360.7 355 350.8V21C355 11.1 363.1 3 373 3C382.9 3 391 11.1 391 21V350.8C391 360.7 383 368.8 373 368.8Z" stroke="#202B52" stroke-width="6" stroke-miterlimit="10" stroke-linecap="round" stroke-linejoin="round"/>
<path d="M116.7 57.5C116.7 48.1 109.1 40.5 99.7002 40.5" stroke="white" stroke-width="3" stroke-miterlimit="10" stroke-linecap="round" stroke-linejoin="round"/>
<path d="M181.7 57.5C181.7 48.1 174.1 40.5 164.7 40.5" stroke="white" stroke-width="3" stroke-miterlimit="10" stroke-linecap="round" stroke-linejoin="round"/>
<path d="M245.7 57.5C245.7 48.1 238.1 40.5 228.7 40.5" stroke="white" stroke-width="3" stroke-miterlimit="10" stroke-linecap="round" stroke-linejoin="round"/>
<path d="M214 136C214 126.6 206.4 119 197 119" stroke="white" stroke-width="3" stroke-miterlimit="10" stroke-linecap="round" stroke-linejoin="round"/>
<path d="M314.8 136C314.8 126.6 307.2 119 297.8 119" stroke="white" stroke-width="3" stroke-miterlimit="10" stroke-linecap="round" stroke-linejoin="round"/>
</svg>
