<svg width="668" height="604" viewBox="0 0 668 604" fill="none" xmlns="http://www.w3.org/2000/svg">
<path opacity="0.15" d="M3 600.6H665" stroke="#474747" stroke-width="6" stroke-miterlimit="10" stroke-linecap="round" stroke-linejoin="round"/>
<path d="M256 564.5L260 593.1C260.6 597.4 264.6 600.6 269.4 600.6H397.6C402.4 600.6 406.4 597.4 407 593.1L411 564.5H256Z" fill="#D6D6D4"/>
<path d="M394.7 600.6L404 598.2L410.8 564.5H256L257.5 575.5H385.3C385.4 575.5 385.4 575.5 385.5 575.5C403.8 575.5 394.7 600.6 394.7 600.6Z" fill="#BABABA"/>
<path d="M426.3 554.8L461.3 275.3H205.5L240.5 554.8C241.2 560.3 246 564.5 251.7 564.5H415.2C420.9 564.5 425.6 560.4 426.3 554.8Z" fill="#5EB173"/>
<path opacity="0.34" d="M326.3 504.1C323.8 504.1 321.9 502.8 321.2 502.3C319 500.5 317.7 497.5 317.6 493.9C317.4 489.5 319 485.2 321.8 482.5C322.6 481.8 324.9 479.5 327.9 479.5C328.2 479.5 328.5 479.5 328.8 479.6C330.8 479.9 332.6 481.2 334 483.4C336.2 486.7 336.9 491.2 336 495C334.9 499.4 331.2 504.1 326.5 504.2L326.3 504.1ZM327.3 490.3C326.4 492.4 326.6 493.7 326.9 494C326.9 494 327 494 327 494.1C327.1 494 327.3 493.7 327.5 493.2C327.8 492.2 327.6 491.1 327.3 490.3Z" fill="#60A06C"/>
<path opacity="0.34" d="M337.9 516.5C336.6 516.5 335.3 516.1 334.3 515.4C332.1 513.9 332.2 511.9 332.8 504.6C333.2 500 333.8 492.9 334.3 481.9C334.3 481.3 334.4 480.8 334.4 480.2C334.3 480.2 334.3 480.2 334.2 480.2C334 480.2 333.7 480.2 333.5 480.2C332.7 480.3 331.9 480.3 331.1 480.3C330.2 480.3 329.4 480.4 328.6 480.5C328.3 480.5 328 480.6 327.7 480.6C327.1 480.7 326.6 480.7 326.2 480.7C325.3 480.7 324.6 480.4 324 479.8C321.9 477.7 324.2 473.2 325.9 471.5C327.3 470.2 329.2 469.5 331.5 469.5C332.8 469.5 334.3 469.7 336.1 470.1C337.2 466.9 338.8 464.6 340.8 463.2C341.6 462.6 343.8 461.1 346.7 461.1C347.1 461.1 347.5 461.1 347.9 461.2C348.5 461.3 350.4 461.6 352 463.1C353.5 464.6 353.9 466.6 353.9 468C354.7 467.7 355.5 467.5 356.5 467.5C356.9 467.5 357.2 467.5 357.6 467.6C358.2 467.7 359.9 467.9 361.3 469.4C363.6 471.7 363 475 362.9 475.6L362.5 477.3C362.8 477.2 363.1 477 363.3 476.8C363.9 476.2 364.3 475.3 364.4 474L364.7 469.9L369.8 474.7L370 475C370.9 476.8 370.3 479.1 368.2 481.7C366.7 483.6 363.8 484.5 359.4 484.5C358.1 484.5 356.6 484.4 355 484.2C354.4 489.1 354.5 494.5 354.5 494.5C354.6 496.5 354.6 498.4 354.7 500C355 508.9 355.1 512.5 352.3 514.6C351.3 515.3 350 515.7 348.7 515.7C347.5 515.7 346.4 515.4 345.4 514.7C344.4 514 343.9 513.3 343.7 511.9C343.3 513.1 342.6 514 341.6 514.8C340.8 516 339.4 516.5 337.9 516.5ZM344.7 482.4C344.3 487.4 344.4 492.2 344.4 492.2C344.5 494.5 344.5 496.6 344.6 498.5C344.6 499.3 344.7 500 344.7 500.7C345 497 345.3 492.2 345.6 485.8C345.6 484.7 345.7 483.7 345.8 482.7C345.4 482.6 345.1 482.5 344.7 482.4ZM357.6 477.5C358.8 477.7 359.8 477.9 360.6 477.9C360.9 477.9 361.2 477.9 361.5 477.8L360.2 477.1C359.8 476.9 359.4 476.8 359.1 476.8C359 476.8 358.9 476.8 358.8 476.8C358.7 476.8 358.1 477 357.6 477.5ZM347.8 474.2C348.3 473 349 471.9 349.7 471.1C349.6 471.1 349.6 471.1 349.5 471.1C349.4 471.1 349.2 471.1 349.1 471.1C349.1 471.1 348.1 471.3 347.1 472.4C346.9 472.6 346.6 473 346.3 473.7C346.5 473.7 347.5 474.1 347.8 474.2Z" fill="#60A06C"/>
<path opacity="0.34" d="M360.5 506.6C358.2 506.6 356.2 505.9 354.9 504.6C353 502.7 352.3 499.2 353.2 495.2C354.1 490.8 357 484.9 362.3 482.7C362.8 482.5 364.6 481.8 366.7 481.8C368.6 481.8 370.2 482.4 371.5 483.4C374 485.5 374.4 489.1 373.7 491.6C373 494.2 371.1 495.9 368.9 497C369.1 497.3 369.4 497.7 369.4 498.4C369.6 499.9 368.8 502.3 367.1 504C365.6 505.6 363.1 506.6 360.5 506.6ZM365.6 489.7C365.3 489.8 365 490 364.6 490.3C365 490.1 365.3 489.9 365.6 489.7Z" fill="#60A06C"/>
<path opacity="0.34" d="M376.6 507C374.3 507 372 506.2 370.7 504.7C368.8 502.7 368.2 499.5 368.9 495.7C369.9 490.9 372.9 486.8 376.5 485.3C377.8 484.8 379.3 484.5 380.7 484.5C383 484.5 384.8 485.2 386 486.6C388.2 489.1 387.4 492.6 387.1 493.6C386.5 495.7 385.1 497.3 383.4 498.4C383.7 498.7 384 499.2 384 499.9C384.1 501.3 383.4 503.6 381.8 505C380.6 506.3 378.7 507 376.6 507Z" fill="#60A06C"/>
<path opacity="0.34" d="M303.4 514.9C301.8 514.9 300.3 514.7 298.8 514.2C293.8 512.7 289.8 508.6 287.5 502.7C285 496.3 285.8 488.2 289.4 480.9C287.9 481.2 286.6 482 285.4 482.7C284.1 483.5 283 484.1 281.8 484.1C281.1 484.1 280.5 483.9 279.9 483.5C278.8 482.6 278.2 481 278.3 479C278.4 476.6 279.5 473.3 282.2 471.8C283.2 471.2 284.4 470.9 285.7 470.9C288.3 470.9 291.3 472.1 294.4 473.5C297.4 470.1 300.9 467.8 304.5 466.6C306.5 466 308.5 465.6 310.2 465.6C312.8 465.6 314.9 466.4 316.2 467.9C319.2 471.3 317.8 477.4 314.7 481C313.2 482.7 310.4 484.8 305.4 485.1C305.1 485.1 304.9 485.1 304.6 485.1C302.7 485.1 301.1 484.7 299.3 484.1C298.8 484 298.4 483.8 298 483.7C296.1 490.4 297 497.6 300.2 500.3C301.2 501.1 302.9 502 304.7 502C305.1 502 305.5 502 305.8 501.9C305.9 501.9 308.6 501.2 309.1 499.1C309.4 498.1 309.2 496.8 308.6 496.1C308.2 495.6 307.6 495.4 307 495.1C306.4 494.9 304.8 494.2 305 492.5C305.2 490.6 307.6 489.7 309.7 489.7C310.3 489.7 310.9 489.8 311.5 489.9C316.1 491.1 319.5 497.6 318.4 503.3C317.5 508.1 313.9 510.7 312.7 511.6C310.1 513.9 306.8 514.9 303.4 514.9ZM301.5 477.1C302.7 477.7 303.5 478 304.3 478C304.5 478 304.7 478 304.9 478C306.6 477.8 308.6 476.8 309.1 475.2C309.4 474.4 309.3 473.6 309.1 473.5C309.1 473.5 308.8 473.3 308.3 473.3C307.1 473.3 305.6 473.8 304.6 474.4L304.5 474.5C303.4 475.1 302.4 476 301.5 477.1Z" fill="#60A06C"/>
<path d="M205.5 275.3L208.2 297.3H421C429.1 297.3 435.4 304.4 434.4 312.5L412.2 542.5C411.3 551.3 404.7 558.5 396 560.1L371 564.6H406.6H415.1C420.8 564.6 425.6 560.5 426.3 554.9L461.3 275.4H205.5V275.3Z" fill="#60A06C"/>
<path d="M256 564.5L260 593.1C260.6 597.4 264.6 600.6 269.4 600.6H397.6C402.4 600.6 406.4 597.4 407 593.1L411 564.5H256Z" stroke="#474747" stroke-width="6" stroke-miterlimit="10" stroke-linecap="round" stroke-linejoin="round"/>
<path d="M426.3 554.8L461.3 275.3H205.5L240.5 554.8C241.2 560.3 246 564.5 251.7 564.5H415.2C420.9 564.5 425.6 560.4 426.3 554.8Z" stroke="#474747" stroke-width="6" stroke-miterlimit="10" stroke-linecap="round" stroke-linejoin="round"/>
<path d="M466.8 275.3C377.9 275.3 288.9 275.3 200 275.3C191.3 275.4 192.5 270.7 195.5 261.8C197.3 256.5 197.3 250.8 195.5 245.6C192.5 236.6 191.3 232 200 232.1C288.9 232.1 377.9 232.1 466.8 232.1C475.5 232 474.3 236.7 471.3 245.6C469.5 250.9 469.5 256.6 471.3 261.8C474.3 270.7 475.5 275.4 466.8 275.3Z" fill="#646464"/>
<path d="M471.3 245.5C473.2 239.7 474.4 235.7 472.7 233.6C472.3 234.9 471.8 236.4 471.3 238C470 241.8 469.7 245.9 470.2 249.9C470.5 248.4 470.8 247 471.3 245.5Z" fill="#7C7C7C"/>
<path d="M196.6 249.9C197.2 245.9 196.9 241.9 195.5 238C195 236.4 194.5 235 194.1 233.6C192.4 235.7 193.5 239.7 195.5 245.5C196 247 196.4 248.4 196.6 249.9Z" fill="#7C7C7C"/>
<path d="M472.7 266.1C471.7 267.2 469.9 267.8 466.8 267.8C377.9 267.8 288.9 267.8 200 267.8C196.9 267.8 195.1 267.3 194.1 266.1C192.4 272.2 192.8 275.3 200 275.3C288.9 275.3 377.9 275.3 466.8 275.3C474 275.4 474.4 272.2 472.7 266.1Z" fill="#7C7C7C"/>
<path d="M471.3 261.8C471.1 261.3 471 260.8 470.9 260.3C469.6 265 469.7 270 471.2 274.7C474.9 273.2 473.6 268.8 471.3 261.8Z" fill="#646464"/>
<path d="M196.9 255.4C197.9 255 201.8 245.3 207.8 245.3C296.7 245.3 372.4 245.3 461.3 245.3C468.5 245.3 469.8 259.9 470.9 260.3C470.9 260.2 471.3 245.6 471.3 245.5C474.3 236.5 475.5 231.9 466.8 232C378 232 289.1 232 200.3 232C191.3 231.8 192.5 236.5 195.5 245.5C195.6 245.7 196.8 255.3 196.9 255.4Z" fill="#646464"/>
<path d="M195.7 274.7C197.2 270 197.3 265 196 260.3C195.9 260.8 195.7 261.3 195.6 261.8C193.2 268.8 191.9 273.2 195.7 274.7Z" fill="#646464"/>
<path d="M466.8 275.3C377.9 275.3 288.9 275.3 200 275.3C191.3 275.4 192.5 270.7 195.5 261.8C197.3 256.5 197.3 250.8 195.5 245.6C192.5 236.6 191.3 232 200 232.1C288.9 232.1 377.9 232.1 466.8 232.1C475.5 232 474.3 236.7 471.3 245.6C469.5 250.9 469.5 256.6 471.3 261.8C474.3 270.7 475.5 275.4 466.8 275.3Z" stroke="#474747" stroke-width="6" stroke-miterlimit="10" stroke-linecap="round" stroke-linejoin="round"/>
<path d="M459.1 232H207.8L210.3 223.2C214.2 209.2 227.6 199.5 242.9 199.5H424C439.3 199.5 452.6 209.2 456.6 223.2L459.1 232Z" fill="#D6D6D4"/>
<path d="M459.1 232H207.8L210.3 223.2C214.2 209.2 227.6 199.5 242.9 199.5H424C439.3 199.5 452.6 209.2 456.6 223.2L459.1 232Z" fill="#D6D6D4"/>
<path d="M260.5 209.9L432 209.8C444.4 209.8 452 218.7 455.5 219.8C449.4 210.7 435.9 199.5 424.1 199.5H242.8C227.5 199.5 214.2 209.2 210.2 223.2L207.7 232H229.5C234.8 220.4 246.9 209.9 260.5 209.9Z" fill="white"/>
<path d="M459.1 232H207.8L210.3 223.2C214.2 209.2 227.6 199.5 242.9 199.5H424C439.3 199.5 452.6 209.2 456.6 223.2L459.1 232Z" stroke="#474747" stroke-width="6" stroke-miterlimit="10" stroke-linecap="round" stroke-linejoin="round"/>
<path d="M409.6 199.5H341V193.1C341 185.7 347 179.6 354.5 179.6H396.2C403.6 179.6 409.7 185.6 409.7 193.1V199.5H409.6Z" fill="#D6D6D4"/>
<path d="M409.6 199.5H341V193.1C341 185.7 347 179.6 354.5 179.6H396.2C403.6 179.6 409.7 185.6 409.7 193.1V199.5H409.6Z" fill="#D6D6D4"/>
<path d="M341.1 199.3C341.1 192.2 346.8 186.5 353.9 186.5H396.9C403.4 186.5 408.8 191.4 409.6 197.7V192.5C409.6 185.4 403.9 179.7 396.8 179.7H353.8C346.7 179.7 341 185.4 341 192.5V199.5H341.1V199.3Z" fill="white"/>
<path d="M325.3 434.3C314.7 434.3 295.5 426.8 289.4 406.7C283.4 390.3 286 371 296.1 356.5C303.5 345.9 313.6 339.9 323.8 339.9C326.9 339.9 330 340.5 333 341.6L333.1 341.7L333.2 341.8C335.3 343 336.5 344.4 336.9 346.1C337.5 349 335.6 351.7 333.1 355.1C328.1 362 321.3 371.4 328 388.9C335.8 409.1 335.8 428.3 331 432.9C330 433.8 328 434.3 325.3 434.3Z" fill="#60A06C"/>
<path d="M409.6 199.5H341V193.1C341 185.7 347 179.6 354.5 179.6H396.2C403.6 179.6 409.7 185.6 409.7 193.1V199.5H409.6Z" stroke="#474747" stroke-width="6" stroke-miterlimit="10" stroke-linecap="round" stroke-linejoin="round"/>
<path d="M352.8 434C348.9 434 345.3 432.5 342.8 429.9C340.7 427.6 339.6 424.7 339.8 421.6C340.3 413.6 337.6 406 335 398.6C332.6 391.9 330.3 385.5 330.3 378.9C330.2 354.5 346.6 346.8 348.6 346C349.9 345.2 351.4 344.8 353 344.8C359.5 344.8 367.5 351.2 373.3 361.1C377.2 367.7 388.7 391.4 373.6 418.6C368.1 428.4 360.6 434 352.8 434Z" fill="#60A06C"/>
<path d="M333.3 340.4C345.1 347.1 315.2 355.3 327.2 386.5C335.4 407.8 334.2 425 330.7 428.3C327.2 431.6 299.8 427.7 292.2 403.1C279.8 369.3 306.8 330.5 333.3 340.4Z" fill="#F6F9E4"/>
<path d="M350.5 344.8C350.5 344.8 333.2 351.6 333.3 376C333.3 389.6 343.8 403.3 342.8 418.8C342.1 429.6 360.6 436.8 372.9 414.7C394.4 375.7 362.4 337.2 350.5 344.8Z" fill="#F6F9E4"/>
<path d="M322.2 481.9C317.6 486.3 317.4 495.4 321.5 498.7C321.8 498.9 323.3 500.2 325.5 500.1C329.3 500 332.2 495.8 333.1 492.4C334.5 487 331.6 480.2 327.6 479.5C325.1 479.1 322.9 481.2 322.2 481.9ZM328.3 491.8C328.2 492.1 327.6 493.9 326.2 494.1C325.3 494.2 324.6 493.6 324.5 493.5C323.3 492.4 323.4 489.9 324.6 487.2C325.4 486 326 485.7 326.4 485.8C327.8 485.8 329.3 489.2 328.3 491.8Z" fill="#F6F9E4"/>
<path d="M334.4 511.8C332.3 510.4 334.1 507.2 335.3 480C335.6 472.5 337.2 465.7 341.1 463C341.9 462.5 344.1 460.9 346.8 461.3C347.4 461.4 348.7 461.6 349.7 462.7C351.6 464.6 351 467.5 350.9 467.7C350.3 467.4 349.2 466.9 347.8 467.1C347.8 467.1 346.2 467.4 344.7 469C340.9 473.1 341.3 490.3 341.3 490.3C341.7 504.6 342.4 509.6 339.6 511.6C338.3 512.7 336 512.8 334.4 511.8Z" fill="#F6F9E4"/>
<path d="M345.8 511.5C344 510.3 345.5 507.5 346.6 484C346.9 477.5 348.3 471.6 351.6 469.3C352.3 468.8 354.2 467.5 356.5 467.9C357 468 358.1 468.2 359.1 469.1C360.7 470.7 360.2 473.2 360.1 473.5C359.6 473.2 358.6 472.8 357.4 473C357.4 473 356 473.2 354.7 474.6C351.4 478.2 351.8 493 351.8 493C352.1 505.4 352.7 509.7 350.3 511.4C349.1 512.3 347.2 512.4 345.8 511.5Z" fill="#F6F9E4"/>
<path d="M362.6 498.3C361.7 498.5 360.5 498.5 359.6 497.9C357.5 496.4 358.2 491.1 360.8 488C361.2 487.6 363.5 485 365.6 485.7C366.2 485.9 367 486.5 367 487.2C367.1 488.9 363.6 490.8 360.5 491C358.8 491.1 357.4 490.7 356.6 490.4C355.7 491.7 355.8 492.5 355.9 492.8C356.5 494.7 360.8 494.6 361.4 494.5C361.8 494.5 369.3 494 370.7 488.9C371.2 487 370.9 484.3 369.1 482.7C366.5 480.5 362.5 482 362 482.3C354.9 485.1 351.7 497.3 355.3 500.9C357.4 503 362.3 502.7 364.7 500.4C366.3 498.8 366.7 496.3 366.2 496C365.9 496 364.9 497.8 362.6 498.3Z" fill="#F6F9E4"/>
<path d="M377.7 499.6C376.9 499.8 375.8 499.8 375.1 499.3C373.2 497.9 374 493.2 376.2 490.5C376.5 490.1 378.2 488 379.6 488.5C380.3 488.7 380.8 489.5 380.8 490.2C380.7 491.8 378 493 376 493.2C374.5 493.4 373.2 493 372.5 492.7C371.7 493.8 371.8 494.6 371.9 494.8C372.4 496.3 375.3 496.5 376.8 496.3C379.4 496.1 383.3 494.5 384.3 491C384.4 490.6 385.2 487.7 383.6 485.9C381.8 483.9 378.4 484.3 376.3 485.1C370.4 487.5 367.7 497.8 371.1 501.3C373.1 503.3 377.5 503.5 379.6 501.6C381.1 500.3 381.4 498 381 497.7C380.6 497.5 379.7 499.1 377.7 499.6Z" fill="#F6F9E4"/>
<path d="M365.6 472.3C365.5 473.6 365.1 475.2 363.9 476.4C357 483 333.2 464.5 326.5 471.1C325 472.5 323.8 475.7 324.6 476.6C325 477 325.7 476.8 327.5 476.6C329.1 476.4 330.8 476.5 332.4 476.3C336.4 475.9 342.5 478.3 348.8 479.7C350.4 480 363 482.6 366 478.8C366.4 478.3 368.3 475.8 367.5 474.2C366.8 473.5 366.2 472.9 365.6 472.3Z" fill="#F6F9E4"/>
<path d="M295.6 474.8C299.9 476.9 301.3 478.3 304.1 478C306.3 477.7 309.2 476.4 310 473.8C310.3 472.8 310.5 471 309.6 470.1C308.2 468.6 304.7 469.6 302.7 470.6C302.7 470.6 302.6 470.7 302.5 470.7C293.8 475.4 291.1 494.2 298.1 500.1C299.9 501.6 302.7 502.8 305.5 502.1C305.9 502 309.4 501.1 310.3 497.9C310.7 496.3 310.4 494.4 309.4 493.1C308.1 491.6 306.2 491.5 306.3 491C306.3 490.5 308.4 489.7 310.3 490.2C313.9 491.1 316.6 496.6 315.7 501.3C314.9 505.3 311.8 507.6 310.8 508.3C307.2 510.9 302.5 511.5 298.5 510.3C291.7 508.2 289.1 501.4 288.5 500C283.6 487.4 292.8 470.2 304.3 466.6C305.1 466.3 311.3 464.4 313.9 467.3C316.1 469.8 314.9 474.9 312.4 477.7C309.6 480.9 305.6 481.1 304.5 481.2C302.5 481.3 301 480.9 299 480.3C293.9 478.9 293.6 477.3 290.8 476.8C285.4 476 282 481.2 280.2 479.9C278.6 478.7 279.3 473.2 282.3 471.5C285.2 469.8 290 472.1 295.6 474.8Z" fill="#F6F9E4"/>
<path d="M410.7 54.2998C402.9 65.1998 394.3 67.8998 387.7 80.5998C385.9 84.0998 380.6 94.2998 382.2 106.6C384.3 122.8 396.5 127 397.7 141.6C398.2 148.2 396.4 156.2 389.7 165.6" stroke="#474747" stroke-width="6" stroke-miterlimit="10" stroke-linecap="round" stroke-linejoin="round"/>
<path d="M435.7 3C441.8 28.3 437.4 43.9 432.2 53.5C422.7 71 405.4 77.8 404.2 95.4C403.6 103.7 406.9 110.7 409.6 115.1" stroke="#474747" stroke-width="6" stroke-miterlimit="10" stroke-linecap="round" stroke-linejoin="round"/>
<path d="M378.4 63C378.4 63 366.4 77 366.4 89.7" stroke="#474747" stroke-width="6" stroke-miterlimit="10" stroke-linecap="round" stroke-linejoin="round"/>
</svg>
