<svg width="498" height="374" viewBox="0 0 498 374" fill="none" xmlns="http://www.w3.org/2000/svg">
<path opacity="0.34" d="M478.7 373.2H19.3C8.80005 373.2 0.300049 364.7 0.300049 354.2C0.300049 343.7 8.80005 335.2 19.3 335.2H478.6C489.1 335.2 497.6 343.7 497.6 354.2C497.7 364.7 489.2 373.2 478.7 373.2Z" fill="#353535"/>
<path d="M121.8 215.8V15.8C121.8 9.20005 127.2 3.80005 133.8 3.80005H353.8C360.4 3.80005 365.8 9.20005 365.8 15.8V215.8C365.8 222.4 360.4 227.8 353.8 227.8H133.8C127.1 227.8 121.8 222.4 121.8 215.8Z" fill="#EDBEC4"/>
<path d="M129.8 206.5V18.5C129.8 15.7 132 13.5 134.8 13.5H352.8C355.6 13.5 357.8 15.7 357.8 18.5V206.5C357.8 209.3 355.6 211.5 352.8 211.5H134.8C132 211.5 129.8 209.2 129.8 206.5Z" fill="#F4D7DE"/>
<path d="M121.8 215.8V15.8C121.8 9.20005 127.2 3.80005 133.8 3.80005H353.8C360.4 3.80005 365.8 9.20005 365.8 15.8V215.8C365.8 222.4 360.4 227.8 353.8 227.8H133.8C127.1 227.8 121.8 222.4 121.8 215.8Z" stroke="#3A3842" stroke-width="6" stroke-miterlimit="10" stroke-linecap="round" stroke-linejoin="round"/>
<path d="M139.8 178.5V32.5C139.8 28.6 142.9 25.5 146.8 25.5H340.8C344.7 25.5 347.8 28.6 347.8 32.5V178.5C347.8 182.4 344.7 185.5 340.8 185.5H146.8C142.9 185.5 139.8 182.4 139.8 178.5Z" fill="#EDBEC4"/>
<path d="M168.8 176.5C156.7 176.5 146.8 166.6 146.8 154.5V56.5C146.8 44.4 156.7 34.5 168.8 34.5H318.8C330.9 34.5 340.8 44.4 340.8 56.5V154.5C340.8 166.6 330.9 176.5 318.8 176.5H168.8Z" fill="#3A3842"/>
<path d="M322.8 245.8H164.8C160.4 245.8 156.8 242.2 156.8 237.8V227.8H330.8V237.8C330.8 242.2 327.2 245.8 322.8 245.8Z" fill="#EDBEC4"/>
<path d="M330.8 227.8H156.8V236.8H330.8V227.8Z" fill="#DBA1A9"/>
<path d="M322.8 245.8H164.8C160.4 245.8 156.8 242.2 156.8 237.8V227.8H330.8V237.8C330.8 242.2 327.2 245.8 322.8 245.8Z" stroke="#3A3842" stroke-width="6" stroke-miterlimit="10" stroke-linecap="round" stroke-linejoin="round"/>
<path d="M415.8 341.8H71.8C67.4 341.8 63.8 338.2 63.8 333.8V253.8C63.8 249.4 67.4 245.8 71.8 245.8H415.8C420.2 245.8 423.8 249.4 423.8 253.8V333.8C423.8 338.2 420.2 341.8 415.8 341.8Z" fill="#EDBEC4"/>
<path d="M415.8 341.8H71.8C67.4 341.8 63.8 338.2 63.8 333.8V253.8C63.8 249.4 67.4 245.8 71.8 245.8H415.8C420.2 245.8 423.8 249.4 423.8 253.8V333.8C423.8 338.2 420.2 341.8 415.8 341.8Z" stroke="#3A3842" stroke-width="6" stroke-miterlimit="10" stroke-linecap="round" stroke-linejoin="round"/>
<path d="M76.2 325.8V261.8C76.2 257.4 79.8 253.8 84.2 253.8H403.3C407.7 253.8 411.3 257.4 411.3 261.8V325.8C411.3 330.2 407.7 333.8 403.3 333.8H84.2C79.8 333.8 76.2 330.2 76.2 325.8Z" fill="#F4D7DE"/>
<path d="M314 205.6C318.142 205.6 321.5 202.242 321.5 198.1C321.5 193.958 318.142 190.6 314 190.6C309.858 190.6 306.5 193.958 306.5 198.1C306.5 202.242 309.858 205.6 314 205.6Z" fill="#CAB5EA"/>
<path d="M314 204.6C317.59 204.6 320.5 201.69 320.5 198.1C320.5 194.51 317.59 191.6 314 191.6C310.41 191.6 307.5 194.51 307.5 198.1C307.5 201.69 310.41 204.6 314 204.6Z" fill="#3A3842"/>
<path d="M314 203.7C317.093 203.7 319.6 201.193 319.6 198.1C319.6 195.007 317.093 192.5 314 192.5C310.908 192.5 308.4 195.007 308.4 198.1C308.4 201.193 310.908 203.7 314 203.7Z" fill="#33313A"/>
<path d="M184.2 299.3V326.8" stroke="#EDBEC4" stroke-width="6" stroke-miterlimit="10" stroke-linecap="round" stroke-linejoin="round"/>
<path d="M174.2 299.3V326.8" stroke="#EDBEC4" stroke-width="6" stroke-miterlimit="10" stroke-linecap="round" stroke-linejoin="round"/>
<path d="M164.2 299.3V326.8" stroke="#EDBEC4" stroke-width="6" stroke-miterlimit="10" stroke-linecap="round" stroke-linejoin="round"/>
<path d="M154.2 299.3V326.8" stroke="#EDBEC4" stroke-width="6" stroke-miterlimit="10" stroke-linecap="round" stroke-linejoin="round"/>
<path d="M144.2 299.3V326.8" stroke="#EDBEC4" stroke-width="6" stroke-miterlimit="10" stroke-linecap="round" stroke-linejoin="round"/>
<path d="M134.2 299.3V326.8" stroke="#EDBEC4" stroke-width="6" stroke-miterlimit="10" stroke-linecap="round" stroke-linejoin="round"/>
<path d="M124.2 299.3V326.8" stroke="#EDBEC4" stroke-width="6" stroke-miterlimit="10" stroke-linecap="round" stroke-linejoin="round"/>
<path d="M114.2 299.3V326.8" stroke="#EDBEC4" stroke-width="6" stroke-miterlimit="10" stroke-linecap="round" stroke-linejoin="round"/>
<path d="M104.2 299.3V326.8" stroke="#EDBEC4" stroke-width="6" stroke-miterlimit="10" stroke-linecap="round" stroke-linejoin="round"/>
<path d="M185.1 299.3V326.8" stroke="#3A3842" stroke-width="4" stroke-miterlimit="10" stroke-linecap="round" stroke-linejoin="round"/>
<path d="M175.1 299.3V326.8" stroke="#3A3842" stroke-width="4" stroke-miterlimit="10" stroke-linecap="round" stroke-linejoin="round"/>
<path d="M165.1 299.3V326.8" stroke="#3A3842" stroke-width="4" stroke-miterlimit="10" stroke-linecap="round" stroke-linejoin="round"/>
<path d="M155.1 299.3V326.8" stroke="#3A3842" stroke-width="4" stroke-miterlimit="10" stroke-linecap="round" stroke-linejoin="round"/>
<path d="M145.1 299.3V326.8" stroke="#3A3842" stroke-width="4" stroke-miterlimit="10" stroke-linecap="round" stroke-linejoin="round"/>
<path d="M135.1 299.3V326.8" stroke="#3A3842" stroke-width="4" stroke-miterlimit="10" stroke-linecap="round" stroke-linejoin="round"/>
<path d="M125.1 299.3V326.8" stroke="#3A3842" stroke-width="4" stroke-miterlimit="10" stroke-linecap="round" stroke-linejoin="round"/>
<path d="M115.1 299.3V326.8" stroke="#3A3842" stroke-width="4" stroke-miterlimit="10" stroke-linecap="round" stroke-linejoin="round"/>
<path d="M105.1 299.3V326.8" stroke="#3A3842" stroke-width="4" stroke-miterlimit="10" stroke-linecap="round" stroke-linejoin="round"/>
<path d="M106.6 266.2H99.8V273H106.6V266.2Z" fill="#F26640"/>
<path d="M114.8 266.2H108V273H114.8V266.2Z" fill="#5EB755"/>
<path d="M106.6 274.1H99.8V280.9H106.6V274.1Z" fill="#6A82EA"/>
<path d="M114.8 274.1H108V280.9H114.8V274.1Z" fill="#EFAD43"/>
<path d="M204 50.8H259.3" stroke="white" stroke-width="8" stroke-miterlimit="10" stroke-linecap="round" stroke-linejoin="round"/>
<path d="M172 50.8H188" stroke="white" stroke-width="8" stroke-miterlimit="10" stroke-linecap="round" stroke-linejoin="round"/>
<path d="M318.8 34.5H311.2C306.5 98.4 253.2 148.8 188.1 148.8H146.8V154.5C146.8 166.6 156.7 176.5 168.8 176.5H318.8C330.9 176.5 340.8 166.6 340.8 154.5V56.5C340.8 44.4 330.9 34.5 318.8 34.5Z" fill="#33313A"/>
<path opacity="0.34" d="M142.9 269.5H118.1V273.1H142.9V269.5Z" fill="#3A3842"/>
<path opacity="0.34" d="M130.5 275.7H118.1V277.6H130.5V275.7Z" fill="#3A3842"/>
<path d="M249 327.5H145V339.5H249V327.5Z" fill="#E8B5BB"/>
<path d="M103.2 327.5H83.2V339.5H103.2V327.5Z" fill="#E8B5BB"/>
<path d="M134.1 327.5H114.1V339.5H134.1V327.5Z" fill="#E8B5BB"/>
<path d="M279.9 327.5H259.9V339.5H279.9V327.5Z" fill="#E8B5BB"/>
<path d="M310.8 327.5H290.8V339.5H310.8V327.5Z" fill="#E8B5BB"/>
<path d="M341.8 327.5H321.8V339.5H341.8V327.5Z" fill="#E8B5BB"/>
<path d="M249 327.5H145V339.5H249V327.5Z" stroke="#3A3842" stroke-width="6" stroke-miterlimit="10" stroke-linecap="round" stroke-linejoin="round"/>
<path d="M103.2 327.5H83.2V339.5H103.2V327.5Z" stroke="#3A3842" stroke-width="6" stroke-miterlimit="10" stroke-linecap="round" stroke-linejoin="round"/>
<path d="M134.1 327.5H114.1V339.5H134.1V327.5Z" stroke="#3A3842" stroke-width="6" stroke-miterlimit="10" stroke-linecap="round" stroke-linejoin="round"/>
<path d="M279.9 327.5H259.9V339.5H279.9V327.5Z" stroke="#3A3842" stroke-width="6" stroke-miterlimit="10" stroke-linecap="round" stroke-linejoin="round"/>
<path d="M310.8 327.5H290.8V339.5H310.8V327.5Z" stroke="#3A3842" stroke-width="6" stroke-miterlimit="10" stroke-linecap="round" stroke-linejoin="round"/>
<path d="M341.8 327.5H321.8V339.5H341.8V327.5Z" stroke="#3A3842" stroke-width="6" stroke-miterlimit="10" stroke-linecap="round" stroke-linejoin="round"/>
<path d="M360.8 357.5H64.8C62.6 357.5 60.8 355.7 60.8 353.5V343.5C60.8 341.3 62.6 339.5 64.8 339.5H360.8C363 339.5 364.8 341.3 364.8 343.5V353.5C364.8 355.7 363 357.5 360.8 357.5Z" fill="#F2CCD4"/>
<path d="M360.8 357.5H64.8C62.6 357.5 60.8 355.7 60.8 353.5V343.5C60.8 341.3 62.6 339.5 64.8 339.5H360.8C363 339.5 364.8 341.3 364.8 343.5V353.5C364.8 355.7 363 357.5 360.8 357.5Z" stroke="#3A3842" stroke-width="6" stroke-miterlimit="10" stroke-linecap="round" stroke-linejoin="round"/>
<path d="M425.1 357.5H387.8V352.7C387.8 345.4 393.7 339.5 401 339.5H412C419.3 339.5 425.2 345.4 425.2 352.7V357.5H425.1Z" fill="#F2CCD4"/>
<path d="M425.1 357.5H387.8V352.7C387.8 345.4 393.7 339.5 401 339.5H412C419.3 339.5 425.2 345.4 425.2 352.7V357.5H425.1Z" stroke="#3A3842" stroke-width="6" stroke-miterlimit="10" stroke-linecap="round" stroke-linejoin="round"/>
<path d="M386.4 286.5H295.1C294.4 286.5 293.7 285.9 293.7 285.1V277.1C293.7 276.4 294.3 275.7 295.1 275.7H386.4C387.1 275.7 387.8 276.3 387.8 277.1V285.1C387.8 285.9 387.2 286.5 386.4 286.5Z" fill="#EDBEC4"/>
<path d="M352.6 290.5H328.9C328.2 290.5 327.7 289.9 327.7 289.3V273C327.7 272.3 328.3 271.8 328.9 271.8H352.6C353.3 271.8 353.8 272.4 353.8 273V289.3C353.9 290 353.3 290.5 352.6 290.5Z" fill="#EDBEC4"/>
<path d="M383.8 277.1H297.8V285.1H383.8V277.1Z" fill="#3A3842"/>
<path d="M352.8 274.1H328.8V288.1H352.8V274.1Z" fill="#3A3842"/>
<path d="M299.8 281.1C299.8 280 300.7 279.1 301.8 279.1H379.8C380.9 279.1 381.8 280 381.8 281.1C381.8 282.2 380.9 283.1 379.8 283.1H301.8C300.7 283.1 299.8 282.2 299.8 281.1Z" fill="#33313A"/>
<path d="M386.4 311.8H295.1C294.4 311.8 293.7 311.2 293.7 310.4V302.4C293.7 301.7 294.3 301 295.1 301H386.4C387.1 301 387.8 301.6 387.8 302.4V310.4C387.8 311.2 387.2 311.8 386.4 311.8Z" fill="#EDBEC4"/>
<path d="M352.6 315.9H328.9C328.2 315.9 327.7 315.3 327.7 314.7V298.4C327.7 297.7 328.3 297.2 328.9 297.2H352.6C353.3 297.2 353.8 297.8 353.8 298.4V314.7C353.9 315.3 353.3 315.9 352.6 315.9Z" fill="#EDBEC4"/>
<path d="M383.8 302.5H297.8V310.5H383.8V302.5Z" fill="#3A3842"/>
<path d="M352.8 299.5H328.8V313.5H352.8V299.5Z" fill="#3A3842"/>
<path d="M299.8 306.5C299.8 305.4 300.7 304.5 301.8 304.5H379.8C380.9 304.5 381.8 305.4 381.8 306.5C381.8 307.6 380.9 308.5 379.8 308.5H301.8C300.7 308.5 299.8 307.6 299.8 306.5Z" fill="#33313A"/>
</svg>
