<svg width="609" height="583" viewBox="0 0 609 583" fill="none" xmlns="http://www.w3.org/2000/svg">
<g style="mix-blend-mode:multiply" opacity="0.33">
<g style="mix-blend-mode:multiply" opacity="0.33">
<g style="mix-blend-mode:multiply" opacity="0.33">
<path d="M20.758 459.403L33.618 441.034C33.793 440.784 34.061 440.613 34.362 440.56C34.663 440.507 34.973 440.576 35.224 440.751L48.349 449.928C48.6 450.103 48.771 450.371 48.824 450.671C48.877 450.972 48.808 451.282 48.633 451.532L35.773 469.901C34.507 471.71 32.573 472.942 30.398 473.326C28.222 473.711 25.983 473.215 24.173 471.95L22.808 470.995C20.998 469.73 19.765 467.798 19.381 465.624C18.996 463.45 19.492 461.212 20.758 459.403Z" fill="#4E4E4E"/>
</g>
<g style="mix-blend-mode:multiply" opacity="0.33">
<path d="M20.758 459.403L33.618 441.034C33.793 440.784 34.061 440.613 34.362 440.56C34.663 440.507 34.973 440.576 35.224 440.751L48.349 449.928C48.6 450.103 48.771 450.371 48.824 450.671C48.877 450.972 48.808 451.282 48.633 451.532L35.773 469.901C34.507 471.71 32.573 472.942 30.398 473.326C28.222 473.711 25.983 473.215 24.173 471.95L22.808 470.995C20.998 469.73 19.765 467.798 19.381 465.624C18.996 463.45 19.492 461.212 20.758 459.403Z" stroke="#46505C" stroke-width="6.66667" stroke-linecap="round" stroke-linejoin="round"/>
</g>
</g>
<g style="mix-blend-mode:multiply" opacity="0.33">
<g style="mix-blend-mode:multiply" opacity="0.33">
<path d="M20.758 459.403L33.618 441.034C33.793 440.784 34.061 440.613 34.362 440.56C34.663 440.507 34.973 440.576 35.224 440.751L48.349 449.928C48.6 450.103 48.771 450.371 48.824 450.671C48.877 450.972 48.808 451.282 48.633 451.532L35.773 469.901C34.507 471.71 32.573 472.942 30.398 473.326C28.222 473.711 25.983 473.215 24.173 471.95L22.808 470.995C20.998 469.73 19.765 467.798 19.381 465.624C18.996 463.45 19.492 461.212 20.758 459.403Z" fill="#4E4E4E"/>
</g>
<g style="mix-blend-mode:multiply" opacity="0.33">
<path d="M20.758 459.403L33.618 441.034C33.793 440.784 34.061 440.613 34.362 440.56C34.663 440.507 34.973 440.576 35.224 440.751L48.349 449.928C48.6 450.103 48.771 450.371 48.824 450.671C48.877 450.972 48.808 451.282 48.633 451.532L35.773 469.901C34.507 471.71 32.573 472.942 30.398 473.326C28.222 473.711 25.983 473.215 24.173 471.95L22.808 470.995C20.998 469.73 19.765 467.798 19.381 465.624C18.996 463.45 19.492 461.212 20.758 459.403Z" stroke="#46505C" stroke-width="6.66667" stroke-linecap="round" stroke-linejoin="round"/>
</g>
</g>
<g style="mix-blend-mode:multiply" opacity="0.33">
<g style="mix-blend-mode:multiply" opacity="0.33">
<path d="M70.14 459.711C100.125 459.711 124.433 435.419 124.433 405.454C124.433 375.488 100.125 351.196 70.14 351.196C40.154 351.196 15.846 375.488 15.846 405.454C15.846 435.419 40.154 459.711 70.14 459.711Z" fill="#4E4E4E"/>
</g>
<g style="mix-blend-mode:multiply" opacity="0.33">
<path d="M70.14 459.711C100.125 459.711 124.433 435.419 124.433 405.454C124.433 375.488 100.125 351.196 70.14 351.196C40.154 351.196 15.846 375.488 15.846 405.454C15.846 435.419 40.154 459.711 70.14 459.711Z" stroke="#46505C" stroke-width="6.66667" stroke-linecap="round" stroke-linejoin="round"/>
</g>
</g>
<g style="mix-blend-mode:multiply" opacity="0.33">
<g style="mix-blend-mode:multiply" opacity="0.33">
<path d="M70.14 459.711C100.125 459.711 124.433 435.419 124.433 405.454C124.433 375.488 100.125 351.196 70.14 351.196C40.154 351.196 15.846 375.488 15.846 405.454C15.846 435.419 40.154 459.711 70.14 459.711Z" fill="#4E4E4E"/>
</g>
<g style="mix-blend-mode:multiply" opacity="0.33">
<path d="M70.14 459.711C100.125 459.711 124.433 435.419 124.433 405.454C124.433 375.488 100.125 351.196 70.14 351.196C40.154 351.196 15.846 375.488 15.846 405.454C15.846 435.419 40.154 459.711 70.14 459.711Z" stroke="#46505C" stroke-width="6.66667" stroke-linecap="round" stroke-linejoin="round"/>
</g>
</g>
<g style="mix-blend-mode:multiply" opacity="0.33">
<g style="mix-blend-mode:multiply" opacity="0.33">
<path d="M70.14 447.683C93.478 447.683 112.398 428.776 112.398 405.453C112.398 382.13 93.478 363.223 70.14 363.223C46.801 363.223 27.881 382.13 27.881 405.453C27.881 428.776 46.801 447.683 70.14 447.683Z" fill="#4E4E4E"/>
</g>
<g style="mix-blend-mode:multiply" opacity="0.33">
<path d="M70.14 447.683C93.478 447.683 112.398 428.776 112.398 405.453C112.398 382.13 93.478 363.223 70.14 363.223C46.801 363.223 27.881 382.13 27.881 405.453C27.881 428.776 46.801 447.683 70.14 447.683Z" stroke="#46505C" stroke-width="6.66667" stroke-linecap="round" stroke-linejoin="round"/>
</g>
</g>
<g style="mix-blend-mode:multiply" opacity="0.33">
<g style="mix-blend-mode:multiply" opacity="0.33">
<path d="M70.14 447.683C93.478 447.683 112.398 428.776 112.398 405.453C112.398 382.13 93.478 363.223 70.14 363.223C46.801 363.223 27.881 382.13 27.881 405.453C27.881 428.776 46.801 447.683 70.14 447.683Z" fill="#4E4E4E"/>
</g>
<g style="mix-blend-mode:multiply" opacity="0.33">
<path d="M70.14 447.683C93.478 447.683 112.398 428.776 112.398 405.453C112.398 382.13 93.478 363.223 70.14 363.223C46.801 363.223 27.881 382.13 27.881 405.453C27.881 428.776 46.801 447.683 70.14 447.683Z" stroke="#46505C" stroke-width="6.66667" stroke-linecap="round" stroke-linejoin="round"/>
</g>
</g>
<g style="mix-blend-mode:multiply" opacity="0.33">
<g style="mix-blend-mode:multiply" opacity="0.33">
<path d="M42.515 396.687C43.08 395.414 43.692 394.167 44.315 392.946C47.148 387.396 50.537 381.643 55.945 378.244C60.537 375.356 66.958 374.225 71.935 376.78C76.252 378.995 78.853 383.55 82.792 386.385C85.446 388.01 88.204 389.46 91.048 390.724C93.92 392.016 96.192 394.35 97.403 397.255C98.737 401.325 96.538 405.669 96.517 409.953C96.509 412.316 97.166 414.634 98.412 416.643C99.198 417.583 99.704 418.726 99.87 419.94C99.75 420.717 99.421 421.447 98.917 422.052C98.414 422.656 97.755 423.112 97.012 423.371C92.635 425.438 87.523 424.691 82.71 424.172C77.897 423.652 72.567 423.542 68.762 426.533C67.204 427.969 65.761 429.523 64.447 431.184C63.891 432.016 63.159 432.715 62.302 433.23C61.445 433.746 60.484 434.067 59.489 434.168C58.493 434.269 57.488 434.149 56.544 433.817C55.6 433.484 54.742 432.948 54.03 432.245C50.58 429.357 47.588 425.965 45.153 422.183C42.595 418.984 40.787 415.252 39.865 411.262C39 406.307 40.442 401.349 42.515 396.687Z" fill="#4E4E4E"/>
</g>
<g style="mix-blend-mode:multiply" opacity="0.33">
<path d="M42.515 396.687C43.08 395.414 43.692 394.167 44.315 392.946C47.148 387.396 50.537 381.643 55.945 378.244C60.537 375.356 66.958 374.225 71.935 376.78C76.252 378.995 78.853 383.55 82.792 386.385C85.446 388.01 88.204 389.46 91.048 390.724C93.92 392.016 96.192 394.35 97.403 397.255C98.737 401.325 96.538 405.669 96.517 409.953C96.509 412.316 97.166 414.634 98.412 416.643C99.198 417.583 99.704 418.726 99.87 419.94C99.75 420.717 99.421 421.447 98.917 422.052C98.414 422.656 97.755 423.112 97.012 423.371C92.635 425.438 87.523 424.691 82.71 424.172C77.897 423.652 72.567 423.542 68.762 426.533C67.204 427.969 65.761 429.523 64.447 431.184C63.891 432.016 63.159 432.715 62.302 433.23C61.445 433.746 60.484 434.067 59.489 434.168C58.493 434.269 57.488 434.149 56.544 433.817C55.6 433.484 54.742 432.948 54.03 432.245C50.58 429.357 47.588 425.965 45.153 422.183C42.595 418.984 40.787 415.252 39.865 411.262C39 406.307 40.442 401.349 42.515 396.687Z" stroke="#46505C" stroke-width="6.66667" stroke-linecap="round" stroke-linejoin="round"/>
</g>
</g>
<g style="mix-blend-mode:multiply" opacity="0.33">
<g style="mix-blend-mode:multiply" opacity="0.33">
<path d="M78.686 437.424C80.135 437.424 81.31 436.251 81.31 434.803C81.31 433.355 80.135 432.181 78.686 432.181C77.237 432.181 76.063 433.355 76.063 434.803C76.063 436.251 77.237 437.424 78.686 437.424Z" fill="#4E4E4E"/>
</g>
<g style="mix-blend-mode:multiply" opacity="0.33">
<path d="M78.686 437.424C80.135 437.424 81.31 436.251 81.31 434.803C81.31 433.355 80.135 432.181 78.686 432.181C77.237 432.181 76.063 433.355 76.063 434.803C76.063 436.251 77.237 437.424 78.686 437.424Z" stroke="#46505C" stroke-width="6.66667" stroke-linecap="round" stroke-linejoin="round"/>
</g>
</g>
<g style="mix-blend-mode:multiply" opacity="0.33">
<g style="mix-blend-mode:multiply" opacity="0.33">
<path d="M71.858 437.585C72.861 437.585 73.675 436.772 73.675 435.77C73.675 434.767 72.861 433.954 71.858 433.954C70.855 433.954 70.042 434.767 70.042 435.77C70.042 436.772 70.855 437.585 71.858 437.585Z" fill="#4E4E4E"/>
</g>
<g style="mix-blend-mode:multiply" opacity="0.33">
<path d="M71.858 437.585C72.861 437.585 73.675 436.772 73.675 435.77C73.675 434.767 72.861 433.954 71.858 433.954C70.855 433.954 70.042 434.767 70.042 435.77C70.042 436.772 70.855 437.585 71.858 437.585Z" stroke="#46505C" stroke-width="6.66667" stroke-linecap="round" stroke-linejoin="round"/>
</g>
</g>
<g style="mix-blend-mode:multiply" opacity="0.33">
<g style="mix-blend-mode:multiply" opacity="0.33">
<path d="M84.885 434.009C85.794 434.009 86.532 433.273 86.532 432.364C86.532 431.455 85.794 430.718 84.885 430.718C83.976 430.718 83.238 431.455 83.238 432.364C83.238 433.273 83.976 434.009 84.885 434.009Z" fill="#4E4E4E"/>
</g>
<g style="mix-blend-mode:multiply" opacity="0.33">
<path d="M84.885 434.009C85.794 434.009 86.532 433.273 86.532 432.364C86.532 431.455 85.794 430.718 84.885 430.718C83.976 430.718 83.238 431.455 83.238 432.364C83.238 433.273 83.976 434.009 84.885 434.009Z" stroke="#46505C" stroke-width="6.66667" stroke-linecap="round" stroke-linejoin="round"/>
</g>
</g>
<g style="mix-blend-mode:multiply" opacity="0.33">
<g style="mix-blend-mode:multiply" opacity="0.33">
<path d="M66.112 437.628C66.763 437.628 67.292 437.101 67.292 436.449C67.292 435.798 66.763 435.27 66.112 435.27C65.46 435.27 64.932 435.798 64.932 436.449C64.932 437.101 65.46 437.628 66.112 437.628Z" fill="#4E4E4E"/>
</g>
<g style="mix-blend-mode:multiply" opacity="0.33">
<path d="M66.112 437.628C66.763 437.628 67.292 437.101 67.292 436.449C67.292 435.798 66.763 435.27 66.112 435.27C65.46 435.27 64.932 435.798 64.932 436.449C64.932 437.101 65.46 437.628 66.112 437.628Z" stroke="#46505C" stroke-width="6.66667" stroke-linecap="round" stroke-linejoin="round"/>
</g>
</g>
<g style="mix-blend-mode:multiply" opacity="0.33">
<g style="mix-blend-mode:multiply" opacity="0.33">
<path d="M90.086 431.346C90.484 431.346 90.806 431.023 90.806 430.626C90.806 430.228 90.484 429.906 90.086 429.906C89.689 429.906 89.366 430.228 89.366 430.626C89.366 431.023 89.689 431.346 90.086 431.346Z" fill="#4E4E4E"/>
</g>
<g style="mix-blend-mode:multiply" opacity="0.33">
<path d="M90.086 431.346C90.484 431.346 90.806 431.023 90.806 430.626C90.806 430.228 90.484 429.906 90.086 429.906C89.689 429.906 89.366 430.228 89.366 430.626C89.366 431.023 89.689 431.346 90.086 431.346Z" stroke="#46505C" stroke-width="6.66667" stroke-linecap="round" stroke-linejoin="round"/>
</g>
</g>
<g style="mix-blend-mode:multiply" opacity="0.33">
<g style="mix-blend-mode:multiply" opacity="0.33">
<path d="M37.348 397.165C38.282 397.165 39.038 396.409 39.038 395.476C39.038 394.543 38.282 393.787 37.348 393.787C36.415 393.787 35.658 394.543 35.658 395.476C35.658 396.409 36.415 397.165 37.348 397.165Z" fill="#4E4E4E"/>
</g>
<g style="mix-blend-mode:multiply" opacity="0.33">
<path d="M37.348 397.165C38.282 397.165 39.038 396.409 39.038 395.476C39.038 394.543 38.282 393.787 37.348 393.787C36.415 393.787 35.658 394.543 35.658 395.476C35.658 396.409 36.415 397.165 37.348 397.165Z" stroke="#46505C" stroke-width="6.66667" stroke-linecap="round" stroke-linejoin="round"/>
</g>
</g>
<g style="mix-blend-mode:multiply" opacity="0.33">
<g style="mix-blend-mode:multiply" opacity="0.33">
<path d="M83.356 377.414C84.234 377.414 84.946 376.703 84.946 375.825C84.946 374.948 84.234 374.236 83.356 374.236C82.478 374.236 81.766 374.948 81.766 375.825C81.766 376.703 82.478 377.414 83.356 377.414Z" fill="#4E4E4E"/>
</g>
<g style="mix-blend-mode:multiply" opacity="0.33">
<path d="M83.356 377.414C84.234 377.414 84.946 376.703 84.946 375.825C84.946 374.948 84.234 374.236 83.356 374.236C82.478 374.236 81.766 374.948 81.766 375.825C81.766 376.703 82.478 377.414 83.356 377.414Z" stroke="#46505C" stroke-width="6.66667" stroke-linecap="round" stroke-linejoin="round"/>
</g>
</g>
<g style="mix-blend-mode:multiply" opacity="0.33">
<g style="mix-blend-mode:multiply" opacity="0.33">
<path d="M93.691 385.092C94.486 385.092 95.131 384.448 95.131 383.653C95.131 382.858 94.486 382.214 93.691 382.214C92.896 382.214 92.251 382.858 92.251 383.653C92.251 384.448 92.896 385.092 93.691 385.092Z" fill="#4E4E4E"/>
</g>
<g style="mix-blend-mode:multiply" opacity="0.33">
<path d="M93.691 385.092C94.486 385.092 95.131 384.448 95.131 383.653C95.131 382.858 94.486 382.214 93.691 382.214C92.896 382.214 92.251 382.858 92.251 383.653C92.251 384.448 92.896 385.092 93.691 385.092Z" stroke="#46505C" stroke-width="6.66667" stroke-linecap="round" stroke-linejoin="round"/>
</g>
</g>
<g style="mix-blend-mode:multiply" opacity="0.33">
<g style="mix-blend-mode:multiply" opacity="0.33">
<path d="M94.873 388.36C95.221 388.36 95.5031 388.078 95.5031 387.73C95.5031 387.382 95.221 387.1 94.873 387.1C94.525 387.1 94.243 387.382 94.243 387.73C94.243 388.078 94.525 388.36 94.873 388.36Z" fill="#4E4E4E"/>
</g>
<g style="mix-blend-mode:multiply" opacity="0.33">
<path d="M94.873 388.36C95.221 388.36 95.5031 388.078 95.5031 387.73C95.5031 387.382 95.221 387.1 94.873 387.1C94.525 387.1 94.243 387.382 94.243 387.73C94.243 388.078 94.525 388.36 94.873 388.36Z" stroke="#46505C" stroke-width="6.66667" stroke-linecap="round" stroke-linejoin="round"/>
</g>
</g>
</g>
<path d="M8.96001 446.025L21.828 427.652C22.004 427.401 22.271 427.231 22.572 427.177C22.874 427.124 23.184 427.193 23.434 427.368L36.564 436.552C36.815 436.727 36.986 436.995 37.039 437.296C37.092 437.597 37.023 437.907 36.848 438.157L23.979 456.531C22.712 458.34 20.777 459.572 18.601 459.956C16.424 460.34 14.184 459.845 12.374 458.578L11.008 457.623C9.198 456.356 7.965 454.423 7.58 452.248C7.196 450.073 7.69201 447.834 8.96001 446.025Z" fill="white" stroke="#E6F3FF" stroke-width="3.33333" stroke-miterlimit="10"/>
<path opacity="0.18" d="M23.434 427.372C23.183 427.198 22.873 427.129 22.572 427.183C22.271 427.236 22.004 427.407 21.829 427.657L16.034 435.928C18.256 438.044 20.634 439.989 23.149 441.748C25.663 443.505 28.305 445.072 31.052 446.436L36.847 438.162C36.934 438.038 36.996 437.898 37.029 437.751C37.062 437.603 37.065 437.45 37.039 437.301C37.012 437.152 36.957 437.01 36.875 436.882C36.794 436.755 36.688 436.644 36.564 436.558L23.434 427.372Z" fill="#4E4E4E" stroke="#46505C" stroke-width="6.66667" stroke-linecap="round" stroke-linejoin="round"/>
<path d="M8.96001 446.025L21.828 427.652C22.004 427.401 22.271 427.231 22.572 427.177C22.874 427.124 23.184 427.193 23.434 427.368L36.564 436.552C36.815 436.727 36.986 436.995 37.039 437.296C37.092 437.597 37.023 437.907 36.848 438.157L23.979 456.531C22.712 458.34 20.777 459.572 18.601 459.956C16.424 460.34 14.184 459.845 12.374 458.578L11.008 457.623C9.198 456.356 7.965 454.423 7.58 452.248C7.196 450.073 7.69201 447.834 8.96001 446.025Z" stroke="#46505C" stroke-width="6.66667" stroke-linecap="round" stroke-linejoin="round"/>
<path d="M58.104 446.095C88.089 446.095 112.397 421.803 112.397 391.837C112.397 361.872 88.089 337.58 58.104 337.58C28.118 337.58 3.81104 361.872 3.81104 391.837C3.81104 421.803 28.118 446.095 58.104 446.095Z" fill="white" stroke="#E6F3FF" stroke-width="3.33333" stroke-miterlimit="10"/>
<path d="M58.104 446.095C88.089 446.095 112.397 421.803 112.397 391.837C112.397 361.872 88.089 337.58 58.104 337.58C28.118 337.58 3.81104 361.872 3.81104 391.837C3.81104 421.803 28.118 446.095 58.104 446.095Z" stroke="#46505C" stroke-width="6.66667" stroke-linecap="round" stroke-linejoin="round"/>
<path d="M58.103 434.067C81.442 434.067 100.361 415.16 100.361 391.837C100.361 368.514 81.442 349.606 58.103 349.606C34.764 349.606 15.845 368.514 15.845 391.837C15.845 415.16 34.764 434.067 58.103 434.067Z" fill="#845B5B"/>
<path d="M58.103 434.067C81.442 434.067 100.361 415.16 100.361 391.837C100.361 368.514 81.442 349.606 58.103 349.606C34.764 349.606 15.845 368.514 15.845 391.837C15.845 415.16 34.764 434.067 58.103 434.067Z" stroke="#46505C" stroke-width="3.33333" stroke-linecap="round" stroke-linejoin="round"/>
<g style="mix-blend-mode:multiply" opacity="0.33">
<g style="mix-blend-mode:multiply" opacity="0.33">
<path d="M30.478 383.07C31.043 381.799 31.655 380.55 32.278 379.329C35.112 373.781 38.502 368.029 43.908 364.628C48.502 361.739 54.922 360.61 59.898 363.163C64.215 365.379 66.817 369.936 70.755 372.769C73.41 374.391 76.169 375.838 79.013 377.099C81.883 378.391 84.155 380.723 85.368 383.625C86.702 387.697 84.503 392.041 84.48 396.323C84.473 398.687 85.129 401.005 86.375 403.014C87.162 403.953 87.668 405.096 87.835 406.31C87.716 407.087 87.386 407.818 86.883 408.423C86.379 409.028 85.72 409.484 84.977 409.743C80.598 411.808 75.487 411.063 70.673 410.542C65.86 410.021 60.532 409.914 56.725 412.904C55.168 414.339 53.725 415.894 52.41 417.554C51.855 418.386 51.122 419.085 50.265 419.601C49.408 420.116 48.448 420.437 47.452 420.538C46.457 420.64 45.451 420.52 44.508 420.188C43.564 419.856 42.705 419.319 41.993 418.617C38.544 415.728 35.551 412.335 33.117 408.553C30.56 405.357 28.755 401.628 27.833 397.641C26.955 392.691 28.407 387.732 30.478 383.07Z" fill="#845B5B"/>
</g>
</g>
<g style="mix-blend-mode:multiply" opacity="0.33">
<g style="mix-blend-mode:multiply" opacity="0.33">
<path d="M66.65 423.806C68.099 423.806 69.273 422.632 69.273 421.184C69.273 419.736 68.099 418.562 66.65 418.562C65.201 418.562 64.026 419.736 64.026 421.184C64.026 422.632 65.201 423.806 66.65 423.806Z" fill="#845B5B"/>
</g>
</g>
<g style="mix-blend-mode:multiply" opacity="0.33">
<g style="mix-blend-mode:multiply" opacity="0.33">
<path d="M59.822 423.968C60.825 423.968 61.639 423.155 61.639 422.152C61.639 421.15 60.825 420.337 59.822 420.337C58.819 420.337 58.005 421.15 58.005 422.152C58.005 423.155 58.819 423.968 59.822 423.968Z" fill="#845B5B"/>
</g>
</g>
<g style="mix-blend-mode:multiply" opacity="0.33">
<g style="mix-blend-mode:multiply" opacity="0.33">
<path d="M72.849 420.393C73.758 420.393 74.495 419.656 74.495 418.747C74.495 417.838 73.758 417.102 72.849 417.102C71.939 417.102 71.202 417.838 71.202 418.747C71.202 419.656 71.939 420.393 72.849 420.393Z" fill="#845B5B"/>
</g>
</g>
<g style="mix-blend-mode:multiply" opacity="0.33">
<g style="mix-blend-mode:multiply" opacity="0.33">
<path d="M54.075 424.014C54.727 424.014 55.255 423.486 55.255 422.834C55.255 422.183 54.727 421.655 54.075 421.655C53.423 421.655 52.895 422.183 52.895 422.834C52.895 423.486 53.423 424.014 54.075 424.014Z" fill="#845B5B"/>
</g>
</g>
<g style="mix-blend-mode:multiply" opacity="0.33">
<g style="mix-blend-mode:multiply" opacity="0.33">
<path d="M78.05 417.728C78.448 417.728 78.77 417.406 78.77 417.008C78.77 416.61 78.448 416.288 78.05 416.288C77.652 416.288 77.33 416.61 77.33 417.008C77.33 417.406 77.652 417.728 78.05 417.728Z" fill="#845B5B"/>
</g>
</g>
<g style="mix-blend-mode:multiply" opacity="0.33">
<g style="mix-blend-mode:multiply" opacity="0.33">
<path d="M25.312 383.548C26.245 383.548 27.002 382.792 27.002 381.859C27.002 380.926 26.245 380.17 25.312 380.17C24.378 380.17 23.622 380.926 23.622 381.859C23.622 382.792 24.378 383.548 25.312 383.548Z" fill="#845B5B"/>
</g>
</g>
<g style="mix-blend-mode:multiply" opacity="0.33">
<g style="mix-blend-mode:multiply" opacity="0.33">
<path d="M71.32 363.796C72.198 363.796 72.91 363.085 72.91 362.207C72.91 361.33 72.198 360.618 71.32 360.618C70.442 360.618 69.73 361.33 69.73 362.207C69.73 363.085 70.442 363.796 71.32 363.796Z" fill="#845B5B"/>
</g>
</g>
<g style="mix-blend-mode:multiply" opacity="0.33">
<g style="mix-blend-mode:multiply" opacity="0.33">
<path d="M81.655 371.474C82.45 371.474 83.095 370.83 83.095 370.035C83.095 369.24 82.45 368.596 81.655 368.596C80.86 368.596 80.215 369.24 80.215 370.035C80.215 370.83 80.86 371.474 81.655 371.474Z" fill="#845B5B"/>
</g>
</g>
<g style="mix-blend-mode:multiply" opacity="0.33">
<g style="mix-blend-mode:multiply" opacity="0.33">
<path d="M82.837 374.742C83.185 374.742 83.467 374.46 83.467 374.112C83.467 373.764 83.185 373.482 82.837 373.482C82.489 373.482 82.207 373.764 82.207 374.112C82.207 374.46 82.489 374.742 82.837 374.742Z" fill="#845B5B"/>
</g>
</g>
<path d="M61.807 398.655C63.648 398.655 65.14 397.164 65.14 395.324C65.14 393.485 63.648 391.993 61.807 391.993C59.966 391.993 58.474 393.485 58.474 395.324C58.474 397.164 59.966 398.655 61.807 398.655Z" fill="#845B5B"/>
<path d="M50.95 388.361C54.172 388.361 56.783 385.751 56.783 382.532C56.783 379.312 54.172 376.702 50.95 376.702C47.728 376.702 45.117 379.312 45.117 382.532C45.117 385.751 47.728 388.361 50.95 388.361Z" fill="#845B5B"/>
<g style="mix-blend-mode:multiply" opacity="0.33">
<g style="mix-blend-mode:multiply" opacity="0.33">
<g style="mix-blend-mode:multiply" opacity="0.33">
<path d="M581.584 217.118H194.917C182.03 217.118 171.583 227.558 171.583 240.436V269.547C171.583 282.425 182.03 292.864 194.917 292.864H581.584C594.47 292.864 604.917 282.425 604.917 269.547V240.436C604.917 227.558 594.47 217.118 581.584 217.118Z" fill="#4E4E4E"/>
</g>
<g style="mix-blend-mode:multiply" opacity="0.33">
<path d="M581.584 217.118H194.917C182.03 217.118 171.583 227.558 171.583 240.436V269.547C171.583 282.425 182.03 292.864 194.917 292.864H581.584C594.47 292.864 604.917 282.425 604.917 269.547V240.436C604.917 227.558 594.47 217.118 581.584 217.118Z" stroke="black" stroke-width="1.66667" stroke-linecap="round" stroke-linejoin="round"/>
</g>
</g>
<g style="mix-blend-mode:multiply" opacity="0.33">
<g style="mix-blend-mode:multiply" opacity="0.33">
<path d="M581.584 217.118H194.917C182.03 217.118 171.583 227.558 171.583 240.436V269.547C171.583 282.425 182.03 292.864 194.917 292.864H581.584C594.47 292.864 604.917 282.425 604.917 269.547V240.436C604.917 227.558 594.47 217.118 581.584 217.118Z" fill="#4E4E4E"/>
</g>
</g>
<g style="mix-blend-mode:multiply" opacity="0.17">
<g style="mix-blend-mode:multiply" opacity="0.17">
<path d="M194.916 217.118H581.583C587.771 217.118 593.706 219.575 598.082 223.948C602.458 228.321 604.916 234.252 604.916 240.436V274.477C604.916 278.253 603.415 281.875 600.743 284.545C598.071 287.215 594.447 288.716 590.668 288.716H185.833C182.054 288.716 178.43 287.215 175.758 284.545C173.086 281.875 171.584 278.253 171.584 274.477V240.436C171.584 234.252 174.043 228.321 178.419 223.948C182.794 219.575 188.729 217.118 194.918 217.118H194.916Z" fill="#4E4E4E"/>
</g>
</g>
<g style="mix-blend-mode:multiply" opacity="0.33">
<g style="mix-blend-mode:multiply" opacity="0.33">
<path d="M581.584 217.118H194.917C182.03 217.118 171.583 227.558 171.583 240.436V269.547C171.583 282.425 182.03 292.864 194.917 292.864H581.584C594.47 292.864 604.917 282.425 604.917 269.547V240.436C604.917 227.558 594.47 217.118 581.584 217.118Z" fill="#4E4E4E"/>
</g>
<g style="mix-blend-mode:multiply" opacity="0.33">
<path d="M581.584 217.118H194.917C182.03 217.118 171.583 227.558 171.583 240.436V269.547C171.583 282.425 182.03 292.864 194.917 292.864H581.584C594.47 292.864 604.917 282.425 604.917 269.547V240.436C604.917 227.558 594.47 217.118 581.584 217.118Z" stroke="#46505C" stroke-width="6.66667" stroke-linecap="round" stroke-linejoin="round"/>
</g>
</g>
<g style="mix-blend-mode:multiply" opacity="0.33">
<g style="mix-blend-mode:multiply" opacity="0.33">
<path d="M574.917 283.848V225.652H201.584V283.848H574.917Z" fill="#4E4E4E"/>
</g>
</g>
<g style="mix-blend-mode:multiply" opacity="0.33">
<g style="mix-blend-mode:multiply" opacity="0.33">
<path d="M574.917 283.848V225.652H201.584V283.848H574.917Z" fill="#4E4E4E"/>
</g>
<g style="mix-blend-mode:multiply" opacity="0.33">
<path d="M574.917 283.848V225.652H201.584V283.848H574.917Z" stroke="#46505C" stroke-width="1.66667" stroke-linecap="round" stroke-linejoin="round"/>
</g>
</g>
<g style="mix-blend-mode:multiply" opacity="0.33">
<g style="mix-blend-mode:multiply" opacity="0.33">
<path d="M581.585 292.864H194.919C182.032 292.864 171.585 303.304 171.585 316.182V556.022C171.585 568.9 182.032 579.34 194.919 579.34H581.585C594.472 579.34 604.919 568.9 604.919 556.022V316.182C604.919 303.304 594.472 292.864 581.585 292.864Z" fill="#4E4E4E"/>
</g>
</g>
<g style="mix-blend-mode:multiply" opacity="0.33">
<g style="mix-blend-mode:multiply" opacity="0.33">
<path d="M598.252 556.022V316.181C598.252 306.983 590.79 299.526 581.585 299.526H194.919C185.714 299.526 178.252 306.983 178.252 316.181V556.022C178.252 565.221 185.714 572.678 194.919 572.678H581.585C590.79 572.678 598.252 565.221 598.252 556.022Z" fill="#4E4E4E"/>
</g>
<g style="mix-blend-mode:multiply" opacity="0.33">
<path d="M598.252 556.022V316.181C598.252 306.983 590.79 299.526 581.585 299.526H194.919C185.714 299.526 178.252 306.983 178.252 316.181V556.022C178.252 565.221 185.714 572.678 194.919 572.678H581.585C590.79 572.678 598.252 565.221 598.252 556.022Z" stroke="#E6F3FF" stroke-width="3.33333" stroke-miterlimit="10"/>
</g>
</g>
<g style="mix-blend-mode:multiply" opacity="0.33">
<g style="mix-blend-mode:multiply" opacity="0.33">
<path d="M361.501 566.311H415.001C416.769 566.311 418.464 567.013 419.715 568.262C420.965 569.512 421.667 571.206 421.667 572.973V579.336H354.834V572.973C354.834 571.206 355.536 569.512 356.787 568.262C358.037 567.013 359.733 566.311 361.501 566.311Z" fill="#4E4E4E"/>
</g>
</g>
<g style="mix-blend-mode:multiply" opacity="0.33">
<g style="mix-blend-mode:multiply" opacity="0.33">
<path d="M581.585 292.864H194.919C182.032 292.864 171.585 303.304 171.585 316.182V556.022C171.585 568.9 182.032 579.34 194.919 579.34H581.585C594.472 579.34 604.919 568.9 604.919 556.022V316.182C604.919 303.304 594.472 292.864 581.585 292.864Z" fill="#4E4E4E"/>
</g>
<g style="mix-blend-mode:multiply" opacity="0.33">
<path d="M581.585 292.864H194.919C182.032 292.864 171.585 303.304 171.585 316.182V556.022C171.585 568.9 182.032 579.34 194.919 579.34H581.585C594.472 579.34 604.919 568.9 604.919 556.022V316.182C604.919 303.304 594.472 292.864 581.585 292.864Z" stroke="#46505C" stroke-width="6.66667" stroke-linecap="round" stroke-linejoin="round"/>
</g>
</g>
<g style="mix-blend-mode:multiply" opacity="0.33">
<g style="mix-blend-mode:multiply" opacity="0.33">
<path d="M574.917 315.217H201.583C198.822 315.217 196.583 317.454 196.583 320.213V463.452C196.583 466.211 198.822 468.448 201.583 468.448H574.917C577.678 468.448 579.917 466.211 579.917 463.452V320.213C579.917 317.454 577.678 315.217 574.917 315.217Z" fill="#4E4E4E"/>
</g>
</g>
<g style="mix-blend-mode:multiply" opacity="0.33">
<g style="mix-blend-mode:multiply" opacity="0.33">
<path d="M270.058 430.973H250.058C249.138 430.973 248.392 431.719 248.392 432.639V452.625C248.392 453.545 249.138 454.291 250.058 454.291H270.058C270.979 454.291 271.725 453.545 271.725 452.625V432.639C271.725 431.719 270.979 430.973 270.058 430.973Z" fill="#4E4E4E"/>
</g>
<g style="mix-blend-mode:multiply" opacity="0.33">
<path d="M270.058 430.973H250.058C249.138 430.973 248.392 431.719 248.392 432.639V452.625C248.392 453.545 249.138 454.291 250.058 454.291H270.058C270.979 454.291 271.725 453.545 271.725 452.625V432.639C271.725 431.719 270.979 430.973 270.058 430.973Z" stroke="#626C84" stroke-width="1.66667" stroke-linecap="round" stroke-linejoin="round"/>
</g>
</g>
<g style="mix-blend-mode:multiply" opacity="0.33">
<g style="mix-blend-mode:multiply" opacity="0.33">
<path d="M233.993 430.973H213.993C213.073 430.973 212.327 431.719 212.327 432.639V452.625C212.327 453.545 213.073 454.291 213.993 454.291H233.993C234.914 454.291 235.66 453.545 235.66 452.625V432.639C235.66 431.719 234.914 430.973 233.993 430.973Z" fill="#4E4E4E"/>
</g>
<g style="mix-blend-mode:multiply" opacity="0.33">
<path d="M233.993 430.973H213.993C213.073 430.973 212.327 431.719 212.327 432.639V452.625C212.327 453.545 213.073 454.291 213.993 454.291H233.993C234.914 454.291 235.66 453.545 235.66 452.625V432.639C235.66 431.719 234.914 430.973 233.993 430.973Z" stroke="#626C84" stroke-width="1.66667" stroke-linecap="round" stroke-linejoin="round"/>
</g>
</g>
<g style="mix-blend-mode:multiply" opacity="0.33">
<g style="mix-blend-mode:multiply" opacity="0.33">
<path d="M450.379 430.973H286.122C285.202 430.973 284.456 431.719 284.456 432.639V452.625C284.456 453.545 285.202 454.291 286.122 454.291H450.379C451.299 454.291 452.046 453.545 452.046 452.625V432.639C452.046 431.719 451.299 430.973 450.379 430.973Z" fill="#4E4E4E"/>
</g>
<g style="mix-blend-mode:multiply" opacity="0.33">
<path d="M450.379 430.973H286.122C285.202 430.973 284.456 431.719 284.456 432.639V452.625C284.456 453.545 285.202 454.291 286.122 454.291H450.379C451.299 454.291 452.046 453.545 452.046 452.625V432.639C452.046 431.719 451.299 430.973 450.379 430.973Z" stroke="#626C84" stroke-width="1.66667" stroke-linecap="round" stroke-linejoin="round"/>
</g>
</g>
<g style="mix-blend-mode:multiply" opacity="0.33">
<g style="mix-blend-mode:multiply" opacity="0.33">
<path d="M486.444 430.973H466.444C465.524 430.973 464.777 431.719 464.777 432.639V452.625C464.777 453.545 465.524 454.291 466.444 454.291H486.444C487.365 454.291 488.111 453.545 488.111 452.625V432.639C488.111 431.719 487.365 430.973 486.444 430.973Z" fill="#4E4E4E"/>
</g>
<g style="mix-blend-mode:multiply" opacity="0.33">
<path d="M486.444 430.973H466.444C465.524 430.973 464.777 431.719 464.777 432.639V452.625C464.777 453.545 465.524 454.291 466.444 454.291H486.444C487.365 454.291 488.111 453.545 488.111 452.625V432.639C488.111 431.719 487.365 430.973 486.444 430.973Z" stroke="#626C84" stroke-width="1.66667" stroke-linecap="round" stroke-linejoin="round"/>
</g>
</g>
<g style="mix-blend-mode:multiply" opacity="0.33">
<g style="mix-blend-mode:multiply" opacity="0.33">
<path d="M539.176 444.089H525.842C524.922 444.089 524.176 444.835 524.176 445.755V452.625C524.176 453.545 524.922 454.291 525.842 454.291H539.176C540.096 454.291 540.842 453.545 540.842 452.625V445.755C540.842 444.835 540.096 444.089 539.176 444.089Z" fill="#4E4E4E"/>
</g>
<g style="mix-blend-mode:multiply" opacity="0.33">
<path d="M539.176 444.089H525.842C524.922 444.089 524.176 444.835 524.176 445.755V452.625C524.176 453.545 524.922 454.291 525.842 454.291H539.176C540.096 454.291 540.842 453.545 540.842 452.625V445.755C540.842 444.835 540.096 444.089 539.176 444.089Z" stroke="#626C84" stroke-width="1.66667" stroke-linecap="round" stroke-linejoin="round"/>
</g>
</g>
<g style="mix-blend-mode:multiply" opacity="0.33">
<g style="mix-blend-mode:multiply" opacity="0.33">
<path d="M539.176 430.973H525.842C524.922 430.973 524.176 431.719 524.176 432.639V439.509C524.176 440.429 524.922 441.175 525.842 441.175H539.176C540.096 441.175 540.842 440.429 540.842 439.509V432.639C540.842 431.719 540.096 430.973 539.176 430.973Z" fill="#4E4E4E"/>
</g>
<g style="mix-blend-mode:multiply" opacity="0.33">
<path d="M539.176 430.973H525.842C524.922 430.973 524.176 431.719 524.176 432.639V439.509C524.176 440.429 524.922 441.175 525.842 441.175H539.176C540.096 441.175 540.842 440.429 540.842 439.509V432.639C540.842 431.719 540.096 430.973 539.176 430.973Z" stroke="#626C84" stroke-width="1.66667" stroke-linecap="round" stroke-linejoin="round"/>
</g>
</g>
<g style="mix-blend-mode:multiply" opacity="0.33">
<g style="mix-blend-mode:multiply" opacity="0.33">
<path d="M562.509 444.089H549.176C548.255 444.089 547.509 444.835 547.509 445.755V452.625C547.509 453.545 548.255 454.291 549.176 454.291H562.509C563.43 454.291 564.176 453.545 564.176 452.625V445.755C564.176 444.835 563.43 444.089 562.509 444.089Z" fill="#4E4E4E"/>
</g>
<g style="mix-blend-mode:multiply" opacity="0.33">
<path d="M562.509 444.089H549.176C548.255 444.089 547.509 444.835 547.509 445.755V452.625C547.509 453.545 548.255 454.291 549.176 454.291H562.509C563.43 454.291 564.176 453.545 564.176 452.625V445.755C564.176 444.835 563.43 444.089 562.509 444.089Z" stroke="#626C84" stroke-width="1.66667" stroke-linecap="round" stroke-linejoin="round"/>
</g>
</g>
<g style="mix-blend-mode:multiply" opacity="0.33">
<g style="mix-blend-mode:multiply" opacity="0.33">
<path d="M515.842 444.089H502.509C501.588 444.089 500.842 444.835 500.842 445.755V452.625C500.842 453.545 501.588 454.291 502.509 454.291H515.842C516.763 454.291 517.509 453.545 517.509 452.625V445.755C517.509 444.835 516.763 444.089 515.842 444.089Z" fill="#4E4E4E"/>
</g>
<g style="mix-blend-mode:multiply" opacity="0.33">
<path d="M515.842 444.089H502.509C501.588 444.089 500.842 444.835 500.842 445.755V452.625C500.842 453.545 501.588 454.291 502.509 454.291H515.842C516.763 454.291 517.509 453.545 517.509 452.625V445.755C517.509 444.835 516.763 444.089 515.842 444.089Z" stroke="#626C84" stroke-width="1.66667" stroke-linecap="round" stroke-linejoin="round"/>
</g>
</g>
<g style="mix-blend-mode:multiply" opacity="0.33">
<g style="mix-blend-mode:multiply" opacity="0.33">
<path d="M266.725 397.794H213.993C213.073 397.794 212.327 398.54 212.327 399.46V419.446C212.327 420.366 213.073 421.112 213.993 421.112H266.725C267.645 421.112 268.392 420.366 268.392 419.446V399.46C268.392 398.54 267.645 397.794 266.725 397.794Z" fill="#4E4E4E"/>
</g>
<g style="mix-blend-mode:multiply" opacity="0.33">
<path d="M266.725 397.794H213.993C213.073 397.794 212.327 398.54 212.327 399.46V419.446C212.327 420.366 213.073 421.112 213.993 421.112H266.725C267.645 421.112 268.392 420.366 268.392 419.446V399.46C268.392 398.54 267.645 397.794 266.725 397.794Z" stroke="#626C84" stroke-width="1.66667" stroke-linecap="round" stroke-linejoin="round"/>
</g>
</g>
<g style="mix-blend-mode:multiply" opacity="0.33">
<g style="mix-blend-mode:multiply" opacity="0.33">
<path d="M303.09 397.794H283.09C282.17 397.794 281.423 398.54 281.423 399.46V419.446C281.423 420.366 282.17 421.112 283.09 421.112H303.09C304.01 421.112 304.757 420.366 304.757 419.446V399.46C304.757 398.54 304.01 397.794 303.09 397.794Z" fill="#4E4E4E"/>
</g>
<g style="mix-blend-mode:multiply" opacity="0.33">
<path d="M303.09 397.794H283.09C282.17 397.794 281.423 398.54 281.423 399.46V419.446C281.423 420.366 282.17 421.112 283.09 421.112H303.09C304.01 421.112 304.757 420.366 304.757 419.446V399.46C304.757 398.54 304.01 397.794 303.09 397.794Z" stroke="#626C84" stroke-width="1.66667" stroke-linecap="round" stroke-linejoin="round"/>
</g>
</g>
<g style="mix-blend-mode:multiply" opacity="0.33">
<g style="mix-blend-mode:multiply" opacity="0.33">
<path d="M339.155 397.794H319.155C318.234 397.794 317.488 398.54 317.488 399.46V419.446C317.488 420.366 318.234 421.112 319.155 421.112H339.155C340.075 421.112 340.822 420.366 340.822 419.446V399.46C340.822 398.54 340.075 397.794 339.155 397.794Z" fill="#4E4E4E"/>
</g>
<g style="mix-blend-mode:multiply" opacity="0.33">
<path d="M339.155 397.794H319.155C318.234 397.794 317.488 398.54 317.488 399.46V419.446C317.488 420.366 318.234 421.112 319.155 421.112H339.155C340.075 421.112 340.822 420.366 340.822 419.446V399.46C340.822 398.54 340.075 397.794 339.155 397.794Z" stroke="#626C84" stroke-width="1.66667" stroke-linecap="round" stroke-linejoin="round"/>
</g>
</g>
<g style="mix-blend-mode:multiply" opacity="0.33">
<g style="mix-blend-mode:multiply" opacity="0.33">
<path d="M375.219 397.794H355.219C354.298 397.794 353.552 398.54 353.552 399.46V419.446C353.552 420.366 354.298 421.112 355.219 421.112H375.219C376.139 421.112 376.886 420.366 376.886 419.446V399.46C376.886 398.54 376.139 397.794 375.219 397.794Z" fill="#4E4E4E"/>
</g>
<g style="mix-blend-mode:multiply" opacity="0.33">
<path d="M375.219 397.794H355.219C354.298 397.794 353.552 398.54 353.552 399.46V419.446C353.552 420.366 354.298 421.112 355.219 421.112H375.219C376.139 421.112 376.886 420.366 376.886 419.446V399.46C376.886 398.54 376.139 397.794 375.219 397.794Z" stroke="#626C84" stroke-width="1.66667" stroke-linecap="round" stroke-linejoin="round"/>
</g>
</g>
<g style="mix-blend-mode:multiply" opacity="0.33">
<g style="mix-blend-mode:multiply" opacity="0.33">
<path d="M411.283 397.794H391.283C390.363 397.794 389.617 398.54 389.617 399.46V419.446C389.617 420.366 390.363 421.112 391.283 421.112H411.283C412.204 421.112 412.95 420.366 412.95 419.446V399.46C412.95 398.54 412.204 397.794 411.283 397.794Z" fill="#4E4E4E"/>
</g>
<g style="mix-blend-mode:multiply" opacity="0.33">
<path d="M411.283 397.794H391.283C390.363 397.794 389.617 398.54 389.617 399.46V419.446C389.617 420.366 390.363 421.112 391.283 421.112H411.283C412.204 421.112 412.95 420.366 412.95 419.446V399.46C412.95 398.54 412.204 397.794 411.283 397.794Z" stroke="#626C84" stroke-width="1.66667" stroke-linecap="round" stroke-linejoin="round"/>
</g>
</g>
<g style="mix-blend-mode:multiply" opacity="0.33">
<g style="mix-blend-mode:multiply" opacity="0.33">
<path d="M447.347 397.794H427.347C426.427 397.794 425.681 398.54 425.681 399.46V419.446C425.681 420.366 426.427 421.112 427.347 421.112H447.347C448.268 421.112 449.014 420.366 449.014 419.446V399.46C449.014 398.54 448.268 397.794 447.347 397.794Z" fill="#4E4E4E"/>
</g>
<g style="mix-blend-mode:multiply" opacity="0.33">
<path d="M447.347 397.794H427.347C426.427 397.794 425.681 398.54 425.681 399.46V419.446C425.681 420.366 426.427 421.112 427.347 421.112H447.347C448.268 421.112 449.014 420.366 449.014 419.446V399.46C449.014 398.54 448.268 397.794 447.347 397.794Z" stroke="#626C84" stroke-width="1.66667" stroke-linecap="round" stroke-linejoin="round"/>
</g>
</g>
<g style="mix-blend-mode:multiply" opacity="0.33">
<g style="mix-blend-mode:multiply" opacity="0.33">
<path d="M483.412 397.794H463.412C462.492 397.794 461.746 398.54 461.746 399.46V419.446C461.746 420.366 462.492 421.112 463.412 421.112H483.412C484.333 421.112 485.079 420.366 485.079 419.446V399.46C485.079 398.54 484.333 397.794 483.412 397.794Z" fill="#4E4E4E"/>
</g>
<g style="mix-blend-mode:multiply" opacity="0.33">
<path d="M483.412 397.794H463.412C462.492 397.794 461.746 398.54 461.746 399.46V419.446C461.746 420.366 462.492 421.112 463.412 421.112H483.412C484.333 421.112 485.079 420.366 485.079 419.446V399.46C485.079 398.54 484.333 397.794 483.412 397.794Z" stroke="#626C84" stroke-width="1.66667" stroke-linecap="round" stroke-linejoin="round"/>
</g>
</g>
<g style="mix-blend-mode:multiply" opacity="0.33">
<g style="mix-blend-mode:multiply" opacity="0.33">
<path d="M562.509 397.794H502.509C501.588 397.794 500.842 398.54 500.842 399.46V419.446C500.842 420.366 501.588 421.112 502.509 421.112H562.509C563.429 421.112 564.176 420.366 564.176 419.446V399.46C564.176 398.54 563.429 397.794 562.509 397.794Z" fill="#4E4E4E"/>
</g>
<g style="mix-blend-mode:multiply" opacity="0.33">
<path d="M562.509 397.794H502.509C501.588 397.794 500.842 398.54 500.842 399.46V419.446C500.842 420.366 501.588 421.112 502.509 421.112H562.509C563.429 421.112 564.176 420.366 564.176 419.446V399.46C564.176 398.54 563.429 397.794 562.509 397.794Z" stroke="#626C84" stroke-width="1.66667" stroke-linecap="round" stroke-linejoin="round"/>
</g>
</g>
<g style="mix-blend-mode:multiply" opacity="0.33">
<g style="mix-blend-mode:multiply" opacity="0.33">
<path d="M290.058 363.684H270.058C269.138 363.684 268.392 364.43 268.392 365.35V385.336C268.392 386.256 269.138 387.002 270.058 387.002H290.058C290.979 387.002 291.725 386.256 291.725 385.336V365.35C291.725 364.43 290.979 363.684 290.058 363.684Z" fill="#4E4E4E"/>
</g>
<g style="mix-blend-mode:multiply" opacity="0.33">
<path d="M290.058 363.684H270.058C269.138 363.684 268.392 364.43 268.392 365.35V385.336C268.392 386.256 269.138 387.002 270.058 387.002H290.058C290.979 387.002 291.725 386.256 291.725 385.336V365.35C291.725 364.43 290.979 363.684 290.058 363.684Z" stroke="#626C84" stroke-width="1.66667" stroke-linecap="round" stroke-linejoin="round"/>
</g>
</g>
<g style="mix-blend-mode:multiply" opacity="0.33">
<g style="mix-blend-mode:multiply" opacity="0.33">
<path d="M253.993 363.684H213.993C213.073 363.684 212.327 364.43 212.327 365.35V385.336C212.327 386.256 213.073 387.002 213.993 387.002H253.993C254.914 387.002 255.66 386.256 255.66 385.336V365.35C255.66 364.43 254.914 363.684 253.993 363.684Z" fill="#4E4E4E"/>
</g>
<g style="mix-blend-mode:multiply" opacity="0.33">
<path d="M253.993 363.684H213.993C213.073 363.684 212.327 364.43 212.327 365.35V385.336C212.327 386.256 213.073 387.002 213.993 387.002H253.993C254.914 387.002 255.66 386.256 255.66 385.336V365.35C255.66 364.43 254.914 363.684 253.993 363.684Z" stroke="#626C84" stroke-width="1.66667" stroke-linecap="round" stroke-linejoin="round"/>
</g>
</g>
<g style="mix-blend-mode:multiply" opacity="0.33">
<g style="mix-blend-mode:multiply" opacity="0.33">
<path d="M326.122 363.684H306.122C305.202 363.684 304.456 364.43 304.456 365.35V385.336C304.456 386.256 305.202 387.002 306.122 387.002H326.122C327.043 387.002 327.789 386.256 327.789 385.336V365.35C327.789 364.43 327.043 363.684 326.122 363.684Z" fill="#4E4E4E"/>
</g>
<g style="mix-blend-mode:multiply" opacity="0.33">
<path d="M326.122 363.684H306.122C305.202 363.684 304.456 364.43 304.456 365.35V385.336C304.456 386.256 305.202 387.002 306.122 387.002H326.122C327.043 387.002 327.789 386.256 327.789 385.336V365.35C327.789 364.43 327.043 363.684 326.122 363.684Z" stroke="#626C84" stroke-width="1.66667" stroke-linecap="round" stroke-linejoin="round"/>
</g>
</g>
<g style="mix-blend-mode:multiply" opacity="0.33">
<g style="mix-blend-mode:multiply" opacity="0.33">
<path d="M362.187 363.684H342.187C341.266 363.684 340.52 364.43 340.52 365.35V385.336C340.52 386.256 341.266 387.002 342.187 387.002H362.187C363.107 387.002 363.853 386.256 363.853 385.336V365.35C363.853 364.43 363.107 363.684 362.187 363.684Z" fill="#4E4E4E"/>
</g>
<g style="mix-blend-mode:multiply" opacity="0.33">
<path d="M362.187 363.684H342.187C341.266 363.684 340.52 364.43 340.52 365.35V385.336C340.52 386.256 341.266 387.002 342.187 387.002H362.187C363.107 387.002 363.853 386.256 363.853 385.336V365.35C363.853 364.43 363.107 363.684 362.187 363.684Z" stroke="#626C84" stroke-width="1.66667" stroke-linecap="round" stroke-linejoin="round"/>
</g>
</g>
<g style="mix-blend-mode:multiply" opacity="0.33">
<g style="mix-blend-mode:multiply" opacity="0.33">
<path d="M398.251 363.684H378.251C377.33 363.684 376.584 364.43 376.584 365.35V385.336C376.584 386.256 377.33 387.002 378.251 387.002H398.251C399.171 387.002 399.917 386.256 399.917 385.336V365.35C399.917 364.43 399.171 363.684 398.251 363.684Z" fill="#4E4E4E"/>
</g>
<g style="mix-blend-mode:multiply" opacity="0.33">
<path d="M398.251 363.684H378.251C377.33 363.684 376.584 364.43 376.584 365.35V385.336C376.584 386.256 377.33 387.002 378.251 387.002H398.251C399.171 387.002 399.917 386.256 399.917 385.336V365.35C399.917 364.43 399.171 363.684 398.251 363.684Z" stroke="#626C84" stroke-width="1.66667" stroke-linecap="round" stroke-linejoin="round"/>
</g>
</g>
<g style="mix-blend-mode:multiply" opacity="0.33">
<g style="mix-blend-mode:multiply" opacity="0.33">
<path d="M434.316 363.684H414.316C413.395 363.684 412.649 364.43 412.649 365.35V385.336C412.649 386.256 413.395 387.002 414.316 387.002H434.316C435.236 387.002 435.982 386.256 435.982 385.336V365.35C435.982 364.43 435.236 363.684 434.316 363.684Z" fill="#4E4E4E"/>
</g>
<g style="mix-blend-mode:multiply" opacity="0.33">
<path d="M434.316 363.684H414.316C413.395 363.684 412.649 364.43 412.649 365.35V385.336C412.649 386.256 413.395 387.002 414.316 387.002H434.316C435.236 387.002 435.982 386.256 435.982 385.336V365.35C435.982 364.43 435.236 363.684 434.316 363.684Z" stroke="#626C84" stroke-width="1.66667" stroke-linecap="round" stroke-linejoin="round"/>
</g>
</g>
<g style="mix-blend-mode:multiply" opacity="0.33">
<g style="mix-blend-mode:multiply" opacity="0.33">
<path d="M470.38 363.684H450.38C449.46 363.684 448.713 364.43 448.713 365.35V385.336C448.713 386.256 449.46 387.002 450.38 387.002H470.38C471.301 387.002 472.047 386.256 472.047 385.336V365.35C472.047 364.43 471.301 363.684 470.38 363.684Z" fill="#4E4E4E"/>
</g>
<g style="mix-blend-mode:multiply" opacity="0.33">
<path d="M470.38 363.684H450.38C449.46 363.684 448.713 364.43 448.713 365.35V385.336C448.713 386.256 449.46 387.002 450.38 387.002H470.38C471.301 387.002 472.047 386.256 472.047 385.336V365.35C472.047 364.43 471.301 363.684 470.38 363.684Z" stroke="#626C84" stroke-width="1.66667" stroke-linecap="round" stroke-linejoin="round"/>
</g>
</g>
<g style="mix-blend-mode:multiply" opacity="0.33">
<g style="mix-blend-mode:multiply" opacity="0.33">
<path d="M506.444 363.684H486.444C485.524 363.684 484.777 364.43 484.777 365.35V385.336C484.777 386.256 485.524 387.002 486.444 387.002H506.444C507.364 387.002 508.111 386.256 508.111 385.336V365.35C508.111 364.43 507.364 363.684 506.444 363.684Z" fill="#4E4E4E"/>
</g>
<g style="mix-blend-mode:multiply" opacity="0.33">
<path d="M506.444 363.684H486.444C485.524 363.684 484.777 364.43 484.777 365.35V385.336C484.777 386.256 485.524 387.002 486.444 387.002H506.444C507.364 387.002 508.111 386.256 508.111 385.336V365.35C508.111 364.43 507.364 363.684 506.444 363.684Z" stroke="#626C84" stroke-width="1.66667" stroke-linecap="round" stroke-linejoin="round"/>
</g>
</g>
<g style="mix-blend-mode:multiply" opacity="0.33">
<g style="mix-blend-mode:multiply" opacity="0.33">
<path d="M562.509 363.684H522.509C521.588 363.684 520.842 364.43 520.842 365.35V385.336C520.842 386.256 521.588 387.002 522.509 387.002H562.509C563.429 387.002 564.176 386.256 564.176 385.336V365.35C564.176 364.43 563.429 363.684 562.509 363.684Z" fill="#4E4E4E"/>
</g>
<g style="mix-blend-mode:multiply" opacity="0.33">
<path d="M562.509 363.684H522.509C521.588 363.684 520.842 364.43 520.842 365.35V385.336C520.842 386.256 521.588 387.002 522.509 387.002H562.509C563.429 387.002 564.176 386.256 564.176 385.336V365.35C564.176 364.43 563.429 363.684 562.509 363.684Z" stroke="#626C84" stroke-width="1.66667" stroke-linecap="round" stroke-linejoin="round"/>
</g>
</g>
<g style="mix-blend-mode:multiply" opacity="0.33">
<g style="mix-blend-mode:multiply" opacity="0.33">
<path d="M270.495 331.04H250.495C249.575 331.04 248.829 331.785 248.829 332.705V352.692C248.829 353.612 249.575 354.357 250.495 354.357H270.495C271.416 354.357 272.162 353.612 272.162 352.692V332.705C272.162 331.785 271.416 331.04 270.495 331.04Z" fill="#4E4E4E"/>
</g>
<g style="mix-blend-mode:multiply" opacity="0.33">
<path d="M270.495 331.04H250.495C249.575 331.04 248.829 331.785 248.829 332.705V352.692C248.829 353.612 249.575 354.357 250.495 354.357H270.495C271.416 354.357 272.162 353.612 272.162 352.692V332.705C272.162 331.785 271.416 331.04 270.495 331.04Z" stroke="#626C84" stroke-width="1.66667" stroke-linecap="round" stroke-linejoin="round"/>
</g>
</g>
<g style="mix-blend-mode:multiply" opacity="0.33">
<g style="mix-blend-mode:multiply" opacity="0.33">
<path d="M233.993 331.04H213.993C213.073 331.04 212.327 331.785 212.327 332.705V352.692C212.327 353.612 213.073 354.357 213.993 354.357H233.993C234.914 354.357 235.66 353.612 235.66 352.692V332.705C235.66 331.785 234.914 331.04 233.993 331.04Z" fill="#4E4E4E"/>
</g>
<g style="mix-blend-mode:multiply" opacity="0.33">
<path d="M233.993 331.04H213.993C213.073 331.04 212.327 331.785 212.327 332.705V352.692C212.327 353.612 213.073 354.357 213.993 354.357H233.993C234.914 354.357 235.66 353.612 235.66 352.692V332.705C235.66 331.785 234.914 331.04 233.993 331.04Z" stroke="#626C84" stroke-width="1.66667" stroke-linecap="round" stroke-linejoin="round"/>
</g>
</g>
<g style="mix-blend-mode:multiply" opacity="0.33">
<g style="mix-blend-mode:multiply" opacity="0.33">
<path d="M306.997 331.04H286.997C286.077 331.04 285.331 331.785 285.331 332.705V352.692C285.331 353.612 286.077 354.357 286.997 354.357H306.997C307.918 354.357 308.664 353.612 308.664 352.692V332.705C308.664 331.785 307.918 331.04 306.997 331.04Z" fill="#4E4E4E"/>
</g>
<g style="mix-blend-mode:multiply" opacity="0.33">
<path d="M306.997 331.04H286.997C286.077 331.04 285.331 331.785 285.331 332.705V352.692C285.331 353.612 286.077 354.357 286.997 354.357H306.997C307.918 354.357 308.664 353.612 308.664 352.692V332.705C308.664 331.785 307.918 331.04 306.997 331.04Z" stroke="#626C84" stroke-width="1.66667" stroke-linecap="round" stroke-linejoin="round"/>
</g>
</g>
<g style="mix-blend-mode:multiply" opacity="0.33">
<g style="mix-blend-mode:multiply" opacity="0.33">
<path d="M343.498 331.04H323.498C322.578 331.04 321.832 331.785 321.832 332.705V352.692C321.832 353.612 322.578 354.357 323.498 354.357H343.498C344.419 354.357 345.165 353.612 345.165 352.692V332.705C345.165 331.785 344.419 331.04 343.498 331.04Z" fill="#4E4E4E"/>
</g>
<g style="mix-blend-mode:multiply" opacity="0.33">
<path d="M343.498 331.04H323.498C322.578 331.04 321.832 331.785 321.832 332.705V352.692C321.832 353.612 322.578 354.357 323.498 354.357H343.498C344.419 354.357 345.165 353.612 345.165 352.692V332.705C345.165 331.785 344.419 331.04 343.498 331.04Z" stroke="#626C84" stroke-width="1.66667" stroke-linecap="round" stroke-linejoin="round"/>
</g>
</g>
<g style="mix-blend-mode:multiply" opacity="0.33">
<g style="mix-blend-mode:multiply" opacity="0.33">
<path d="M380 331.04H360C359.08 331.04 358.333 331.785 358.333 332.705V352.692C358.333 353.612 359.08 354.357 360 354.357H380C380.921 354.357 381.667 353.612 381.667 352.692V332.705C381.667 331.785 380.921 331.04 380 331.04Z" fill="#4E4E4E"/>
</g>
<g style="mix-blend-mode:multiply" opacity="0.33">
<path d="M380 331.04H360C359.08 331.04 358.333 331.785 358.333 332.705V352.692C358.333 353.612 359.08 354.357 360 354.357H380C380.921 354.357 381.667 353.612 381.667 352.692V332.705C381.667 331.785 380.921 331.04 380 331.04Z" stroke="#626C84" stroke-width="1.66667" stroke-linecap="round" stroke-linejoin="round"/>
</g>
</g>
<g style="mix-blend-mode:multiply" opacity="0.33">
<g style="mix-blend-mode:multiply" opacity="0.33">
<path d="M416.502 331.04H396.502C395.582 331.04 394.835 331.785 394.835 332.705V352.692C394.835 353.612 395.582 354.357 396.502 354.357H416.502C417.423 354.357 418.169 353.612 418.169 352.692V332.705C418.169 331.785 417.423 331.04 416.502 331.04Z" fill="#4E4E4E"/>
</g>
<g style="mix-blend-mode:multiply" opacity="0.33">
<path d="M416.502 331.04H396.502C395.582 331.04 394.835 331.785 394.835 332.705V352.692C394.835 353.612 395.582 354.357 396.502 354.357H416.502C417.423 354.357 418.169 353.612 418.169 352.692V332.705C418.169 331.785 417.423 331.04 416.502 331.04Z" stroke="#626C84" stroke-width="1.66667" stroke-linecap="round" stroke-linejoin="round"/>
</g>
</g>
<g style="mix-blend-mode:multiply" opacity="0.33">
<g style="mix-blend-mode:multiply" opacity="0.33">
<path d="M453.004 331.04H433.004C432.084 331.04 431.337 331.785 431.337 332.705V352.692C431.337 353.612 432.084 354.357 433.004 354.357H453.004C453.925 354.357 454.671 353.612 454.671 352.692V332.705C454.671 331.785 453.925 331.04 453.004 331.04Z" fill="#4E4E4E"/>
</g>
<g style="mix-blend-mode:multiply" opacity="0.33">
<path d="M453.004 331.04H433.004C432.084 331.04 431.337 331.785 431.337 332.705V352.692C431.337 353.612 432.084 354.357 433.004 354.357H453.004C453.925 354.357 454.671 353.612 454.671 352.692V332.705C454.671 331.785 453.925 331.04 453.004 331.04Z" stroke="#626C84" stroke-width="1.66667" stroke-linecap="round" stroke-linejoin="round"/>
</g>
</g>
<g style="mix-blend-mode:multiply" opacity="0.33">
<g style="mix-blend-mode:multiply" opacity="0.33">
<path d="M489.505 331.04H469.505C468.585 331.04 467.838 331.785 467.838 332.705V352.692C467.838 353.612 468.585 354.357 469.505 354.357H489.505C490.426 354.357 491.172 353.612 491.172 352.692V332.705C491.172 331.785 490.426 331.04 489.505 331.04Z" fill="#4E4E4E"/>
</g>
<g style="mix-blend-mode:multiply" opacity="0.33">
<path d="M489.505 331.04H469.505C468.585 331.04 467.838 331.785 467.838 332.705V352.692C467.838 353.612 468.585 354.357 469.505 354.357H489.505C490.426 354.357 491.172 353.612 491.172 352.692V332.705C491.172 331.785 490.426 331.04 489.505 331.04Z" stroke="#626C84" stroke-width="1.66667" stroke-linecap="round" stroke-linejoin="round"/>
</g>
</g>
<g style="mix-blend-mode:multiply" opacity="0.33">
<g style="mix-blend-mode:multiply" opacity="0.33">
<path d="M526.007 331.04H506.007C505.087 331.04 504.34 331.785 504.34 332.705V352.692C504.34 353.612 505.087 354.357 506.007 354.357H526.007C526.928 354.357 527.674 353.612 527.674 352.692V332.705C527.674 331.785 526.928 331.04 526.007 331.04Z" fill="#4E4E4E"/>
</g>
<g style="mix-blend-mode:multiply" opacity="0.33">
<path d="M526.007 331.04H506.007C505.087 331.04 504.34 331.785 504.34 332.705V352.692C504.34 353.612 505.087 354.357 506.007 354.357H526.007C526.928 354.357 527.674 353.612 527.674 352.692V332.705C527.674 331.785 526.928 331.04 526.007 331.04Z" stroke="#626C84" stroke-width="1.66667" stroke-linecap="round" stroke-linejoin="round"/>
</g>
</g>
<g style="mix-blend-mode:multiply" opacity="0.33">
<g style="mix-blend-mode:multiply" opacity="0.33">
<path d="M562.509 331.04H542.509C541.588 331.04 540.842 331.785 540.842 332.705V352.692C540.842 353.612 541.588 354.357 542.509 354.357H562.509C563.429 354.357 564.176 353.612 564.176 352.692V332.705C564.176 331.785 563.429 331.04 562.509 331.04Z" fill="#4E4E4E"/>
</g>
<g style="mix-blend-mode:multiply" opacity="0.33">
<path d="M562.509 331.04H542.509C541.588 331.04 540.842 331.785 540.842 332.705V352.692C540.842 353.612 541.588 354.357 542.509 354.357H562.509C563.429 354.357 564.176 353.612 564.176 352.692V332.705C564.176 331.785 563.429 331.04 562.509 331.04Z" stroke="#626C84" stroke-width="1.66667" stroke-linecap="round" stroke-linejoin="round"/>
</g>
</g>
<g style="mix-blend-mode:multiply" opacity="0.33">
<g style="mix-blend-mode:multiply" opacity="0.33">
<path d="M270.058 430.973H250.058C249.138 430.973 248.392 431.719 248.392 432.639V452.625C248.392 453.545 249.138 454.291 250.058 454.291H270.058C270.979 454.291 271.725 453.545 271.725 452.625V432.639C271.725 431.719 270.979 430.973 270.058 430.973Z" fill="#4E4E4E"/>
</g>
</g>
<g style="mix-blend-mode:multiply" opacity="0.33">
<g style="mix-blend-mode:multiply" opacity="0.33">
<path d="M233.993 430.973H213.993C213.073 430.973 212.327 431.719 212.327 432.639V452.625C212.327 453.545 213.073 454.291 213.993 454.291H233.993C234.914 454.291 235.66 453.545 235.66 452.625V432.639C235.66 431.719 234.914 430.973 233.993 430.973Z" fill="#4E4E4E"/>
</g>
</g>
<g style="mix-blend-mode:multiply" opacity="0.33">
<g style="mix-blend-mode:multiply" opacity="0.33">
<path d="M450.379 430.973H286.122C285.202 430.973 284.456 431.719 284.456 432.639V452.625C284.456 453.545 285.202 454.291 286.122 454.291H450.379C451.299 454.291 452.046 453.545 452.046 452.625V432.639C452.046 431.719 451.299 430.973 450.379 430.973Z" fill="#4E4E4E"/>
</g>
</g>
<g style="mix-blend-mode:multiply" opacity="0.33">
<g style="mix-blend-mode:multiply" opacity="0.33">
<path d="M486.444 430.973H466.444C465.524 430.973 464.777 431.719 464.777 432.639V452.625C464.777 453.545 465.524 454.291 466.444 454.291H486.444C487.365 454.291 488.111 453.545 488.111 452.625V432.639C488.111 431.719 487.365 430.973 486.444 430.973Z" fill="#4E4E4E"/>
</g>
</g>
<g style="mix-blend-mode:multiply" opacity="0.33">
<g style="mix-blend-mode:multiply" opacity="0.33">
<path d="M539.176 444.089H525.842C524.922 444.089 524.176 444.835 524.176 445.755V452.625C524.176 453.545 524.922 454.291 525.842 454.291H539.176C540.096 454.291 540.842 453.545 540.842 452.625V445.755C540.842 444.835 540.096 444.089 539.176 444.089Z" fill="#4E4E4E"/>
</g>
</g>
<g style="mix-blend-mode:multiply" opacity="0.33">
<g style="mix-blend-mode:multiply" opacity="0.33">
<path d="M539.176 430.973H525.842C524.922 430.973 524.176 431.719 524.176 432.639V439.509C524.176 440.429 524.922 441.175 525.842 441.175H539.176C540.096 441.175 540.842 440.429 540.842 439.509V432.639C540.842 431.719 540.096 430.973 539.176 430.973Z" fill="#4E4E4E"/>
</g>
</g>
<g style="mix-blend-mode:multiply" opacity="0.33">
<g style="mix-blend-mode:multiply" opacity="0.33">
<path d="M562.509 444.089H549.176C548.255 444.089 547.509 444.835 547.509 445.755V452.625C547.509 453.545 548.255 454.291 549.176 454.291H562.509C563.43 454.291 564.176 453.545 564.176 452.625V445.755C564.176 444.835 563.43 444.089 562.509 444.089Z" fill="#4E4E4E"/>
</g>
</g>
<g style="mix-blend-mode:multiply" opacity="0.33">
<g style="mix-blend-mode:multiply" opacity="0.33">
<path d="M515.842 444.089H502.509C501.588 444.089 500.842 444.835 500.842 445.755V452.625C500.842 453.545 501.588 454.291 502.509 454.291H515.842C516.763 454.291 517.509 453.545 517.509 452.625V445.755C517.509 444.835 516.763 444.089 515.842 444.089Z" fill="#4E4E4E"/>
</g>
</g>
<g style="mix-blend-mode:multiply" opacity="0.33">
<g style="mix-blend-mode:multiply" opacity="0.33">
<path d="M266.725 397.794H213.993C213.073 397.794 212.327 398.54 212.327 399.46V419.446C212.327 420.366 213.073 421.112 213.993 421.112H266.725C267.645 421.112 268.392 420.366 268.392 419.446V399.46C268.392 398.54 267.645 397.794 266.725 397.794Z" fill="#4E4E4E"/>
</g>
</g>
<g style="mix-blend-mode:multiply" opacity="0.33">
<g style="mix-blend-mode:multiply" opacity="0.33">
<path d="M303.09 397.794H283.09C282.17 397.794 281.423 398.54 281.423 399.46V419.446C281.423 420.366 282.17 421.112 283.09 421.112H303.09C304.01 421.112 304.757 420.366 304.757 419.446V399.46C304.757 398.54 304.01 397.794 303.09 397.794Z" fill="#4E4E4E"/>
</g>
</g>
<g style="mix-blend-mode:multiply" opacity="0.33">
<g style="mix-blend-mode:multiply" opacity="0.33">
<path d="M339.155 397.794H319.155C318.234 397.794 317.488 398.54 317.488 399.46V419.446C317.488 420.366 318.234 421.112 319.155 421.112H339.155C340.075 421.112 340.822 420.366 340.822 419.446V399.46C340.822 398.54 340.075 397.794 339.155 397.794Z" fill="#4E4E4E"/>
</g>
</g>
<g style="mix-blend-mode:multiply" opacity="0.33">
<g style="mix-blend-mode:multiply" opacity="0.33">
<path d="M375.219 397.794H355.219C354.298 397.794 353.552 398.54 353.552 399.46V419.446C353.552 420.366 354.298 421.112 355.219 421.112H375.219C376.139 421.112 376.886 420.366 376.886 419.446V399.46C376.886 398.54 376.139 397.794 375.219 397.794Z" fill="#4E4E4E"/>
</g>
</g>
<g style="mix-blend-mode:multiply" opacity="0.33">
<g style="mix-blend-mode:multiply" opacity="0.33">
<path d="M411.283 397.794H391.283C390.363 397.794 389.617 398.54 389.617 399.46V419.446C389.617 420.366 390.363 421.112 391.283 421.112H411.283C412.204 421.112 412.95 420.366 412.95 419.446V399.46C412.95 398.54 412.204 397.794 411.283 397.794Z" fill="#4E4E4E"/>
</g>
</g>
<g style="mix-blend-mode:multiply" opacity="0.33">
<g style="mix-blend-mode:multiply" opacity="0.33">
<path d="M447.347 397.794H427.347C426.427 397.794 425.681 398.54 425.681 399.46V419.446C425.681 420.366 426.427 421.112 427.347 421.112H447.347C448.268 421.112 449.014 420.366 449.014 419.446V399.46C449.014 398.54 448.268 397.794 447.347 397.794Z" fill="#4E4E4E"/>
</g>
</g>
<g style="mix-blend-mode:multiply" opacity="0.33">
<g style="mix-blend-mode:multiply" opacity="0.33">
<path d="M483.412 397.794H463.412C462.492 397.794 461.746 398.54 461.746 399.46V419.446C461.746 420.366 462.492 421.112 463.412 421.112H483.412C484.333 421.112 485.079 420.366 485.079 419.446V399.46C485.079 398.54 484.333 397.794 483.412 397.794Z" fill="#4E4E4E"/>
</g>
</g>
<g style="mix-blend-mode:multiply" opacity="0.33">
<g style="mix-blend-mode:multiply" opacity="0.33">
<path d="M562.509 397.794H502.509C501.588 397.794 500.842 398.54 500.842 399.46V419.446C500.842 420.366 501.588 421.112 502.509 421.112H562.509C563.429 421.112 564.176 420.366 564.176 419.446V399.46C564.176 398.54 563.429 397.794 562.509 397.794Z" fill="#4E4E4E"/>
</g>
</g>
<g style="mix-blend-mode:multiply" opacity="0.33">
<g style="mix-blend-mode:multiply" opacity="0.33">
<path d="M290.058 363.684H270.058C269.138 363.684 268.392 364.43 268.392 365.35V385.336C268.392 386.256 269.138 387.002 270.058 387.002H290.058C290.979 387.002 291.725 386.256 291.725 385.336V365.35C291.725 364.43 290.979 363.684 290.058 363.684Z" fill="#4E4E4E"/>
</g>
</g>
<g style="mix-blend-mode:multiply" opacity="0.33">
<g style="mix-blend-mode:multiply" opacity="0.33">
<path d="M253.993 363.684H213.993C213.073 363.684 212.327 364.43 212.327 365.35V385.336C212.327 386.256 213.073 387.002 213.993 387.002H253.993C254.914 387.002 255.66 386.256 255.66 385.336V365.35C255.66 364.43 254.914 363.684 253.993 363.684Z" fill="#4E4E4E"/>
</g>
</g>
<g style="mix-blend-mode:multiply" opacity="0.33">
<g style="mix-blend-mode:multiply" opacity="0.33">
<path d="M326.122 363.684H306.122C305.202 363.684 304.456 364.43 304.456 365.35V385.336C304.456 386.256 305.202 387.002 306.122 387.002H326.122C327.043 387.002 327.789 386.256 327.789 385.336V365.35C327.789 364.43 327.043 363.684 326.122 363.684Z" fill="#4E4E4E"/>
</g>
</g>
<g style="mix-blend-mode:multiply" opacity="0.33">
<g style="mix-blend-mode:multiply" opacity="0.33">
<path d="M362.187 363.684H342.187C341.266 363.684 340.52 364.43 340.52 365.35V385.336C340.52 386.256 341.266 387.002 342.187 387.002H362.187C363.107 387.002 363.853 386.256 363.853 385.336V365.35C363.853 364.43 363.107 363.684 362.187 363.684Z" fill="#4E4E4E"/>
</g>
</g>
<g style="mix-blend-mode:multiply" opacity="0.33">
<g style="mix-blend-mode:multiply" opacity="0.33">
<path d="M398.251 363.684H378.251C377.33 363.684 376.584 364.43 376.584 365.35V385.336C376.584 386.256 377.33 387.002 378.251 387.002H398.251C399.171 387.002 399.917 386.256 399.917 385.336V365.35C399.917 364.43 399.171 363.684 398.251 363.684Z" fill="#4E4E4E"/>
</g>
</g>
<g style="mix-blend-mode:multiply" opacity="0.33">
<g style="mix-blend-mode:multiply" opacity="0.33">
<path d="M434.316 363.684H414.316C413.395 363.684 412.649 364.43 412.649 365.35V385.336C412.649 386.256 413.395 387.002 414.316 387.002H434.316C435.236 387.002 435.982 386.256 435.982 385.336V365.35C435.982 364.43 435.236 363.684 434.316 363.684Z" fill="#4E4E4E"/>
</g>
</g>
<g style="mix-blend-mode:multiply" opacity="0.33">
<g style="mix-blend-mode:multiply" opacity="0.33">
<path d="M470.38 363.684H450.38C449.46 363.684 448.713 364.43 448.713 365.35V385.336C448.713 386.256 449.46 387.002 450.38 387.002H470.38C471.301 387.002 472.047 386.256 472.047 385.336V365.35C472.047 364.43 471.301 363.684 470.38 363.684Z" fill="#4E4E4E"/>
</g>
</g>
<g style="mix-blend-mode:multiply" opacity="0.33">
<g style="mix-blend-mode:multiply" opacity="0.33">
<path d="M506.444 363.684H486.444C485.524 363.684 484.777 364.43 484.777 365.35V385.336C484.777 386.256 485.524 387.002 486.444 387.002H506.444C507.364 387.002 508.111 386.256 508.111 385.336V365.35C508.111 364.43 507.364 363.684 506.444 363.684Z" fill="#4E4E4E"/>
</g>
</g>
<g style="mix-blend-mode:multiply" opacity="0.33">
<g style="mix-blend-mode:multiply" opacity="0.33">
<path d="M562.509 363.684H522.509C521.588 363.684 520.842 364.43 520.842 365.35V385.336C520.842 386.256 521.588 387.002 522.509 387.002H562.509C563.429 387.002 564.176 386.256 564.176 385.336V365.35C564.176 364.43 563.429 363.684 562.509 363.684Z" fill="#4E4E4E"/>
</g>
</g>
<g style="mix-blend-mode:multiply" opacity="0.33">
<g style="mix-blend-mode:multiply" opacity="0.33">
<path d="M270.495 331.04H250.495C249.575 331.04 248.829 331.785 248.829 332.705V352.692C248.829 353.612 249.575 354.357 250.495 354.357H270.495C271.416 354.357 272.162 353.612 272.162 352.692V332.705C272.162 331.785 271.416 331.04 270.495 331.04Z" fill="#4E4E4E"/>
</g>
</g>
<g style="mix-blend-mode:multiply" opacity="0.33">
<g style="mix-blend-mode:multiply" opacity="0.33">
<path d="M233.993 331.04H213.993C213.073 331.04 212.327 331.785 212.327 332.705V352.692C212.327 353.612 213.073 354.357 213.993 354.357H233.993C234.914 354.357 235.66 353.612 235.66 352.692V332.705C235.66 331.785 234.914 331.04 233.993 331.04Z" fill="#4E4E4E"/>
</g>
</g>
<g style="mix-blend-mode:multiply" opacity="0.33">
<g style="mix-blend-mode:multiply" opacity="0.33">
<path d="M306.997 331.04H286.997C286.077 331.04 285.331 331.785 285.331 332.705V352.692C285.331 353.612 286.077 354.357 286.997 354.357H306.997C307.918 354.357 308.664 353.612 308.664 352.692V332.705C308.664 331.785 307.918 331.04 306.997 331.04Z" fill="#4E4E4E"/>
</g>
</g>
<g style="mix-blend-mode:multiply" opacity="0.33">
<g style="mix-blend-mode:multiply" opacity="0.33">
<path d="M343.498 331.04H323.498C322.578 331.04 321.832 331.785 321.832 332.705V352.692C321.832 353.612 322.578 354.357 323.498 354.357H343.498C344.419 354.357 345.165 353.612 345.165 352.692V332.705C345.165 331.785 344.419 331.04 343.498 331.04Z" fill="#4E4E4E"/>
</g>
</g>
<g style="mix-blend-mode:multiply" opacity="0.33">
<g style="mix-blend-mode:multiply" opacity="0.33">
<path d="M380 331.04H360C359.08 331.04 358.333 331.785 358.333 332.705V352.692C358.333 353.612 359.08 354.357 360 354.357H380C380.921 354.357 381.667 353.612 381.667 352.692V332.705C381.667 331.785 380.921 331.04 380 331.04Z" fill="#4E4E4E"/>
</g>
</g>
<g style="mix-blend-mode:multiply" opacity="0.33">
<g style="mix-blend-mode:multiply" opacity="0.33">
<path d="M416.502 331.04H396.502C395.582 331.04 394.835 331.785 394.835 332.705V352.692C394.835 353.612 395.582 354.357 396.502 354.357H416.502C417.423 354.357 418.169 353.612 418.169 352.692V332.705C418.169 331.785 417.423 331.04 416.502 331.04Z" fill="#4E4E4E"/>
</g>
</g>
<g style="mix-blend-mode:multiply" opacity="0.33">
<g style="mix-blend-mode:multiply" opacity="0.33">
<path d="M453.004 331.04H433.004C432.084 331.04 431.337 331.785 431.337 332.705V352.692C431.337 353.612 432.084 354.357 433.004 354.357H453.004C453.925 354.357 454.671 353.612 454.671 352.692V332.705C454.671 331.785 453.925 331.04 453.004 331.04Z" fill="#4E4E4E"/>
</g>
</g>
<g style="mix-blend-mode:multiply" opacity="0.33">
<g style="mix-blend-mode:multiply" opacity="0.33">
<path d="M489.505 331.04H469.505C468.585 331.04 467.838 331.785 467.838 332.705V352.692C467.838 353.612 468.585 354.357 469.505 354.357H489.505C490.426 354.357 491.172 353.612 491.172 352.692V332.705C491.172 331.785 490.426 331.04 489.505 331.04Z" fill="#4E4E4E"/>
</g>
</g>
<g style="mix-blend-mode:multiply" opacity="0.33">
<g style="mix-blend-mode:multiply" opacity="0.33">
<path d="M526.007 331.04H506.007C505.087 331.04 504.34 331.785 504.34 332.705V352.692C504.34 353.612 505.087 354.357 506.007 354.357H526.007C526.928 354.357 527.674 353.612 527.674 352.692V332.705C527.674 331.785 526.928 331.04 526.007 331.04Z" fill="#4E4E4E"/>
</g>
</g>
<g style="mix-blend-mode:multiply" opacity="0.33">
<g style="mix-blend-mode:multiply" opacity="0.33">
<path d="M562.509 331.04H542.509C541.588 331.04 540.842 331.785 540.842 332.705V352.692C540.842 353.612 541.588 354.357 542.509 354.357H562.509C563.429 354.357 564.176 353.612 564.176 352.692V332.705C564.176 331.785 563.429 331.04 562.509 331.04Z" fill="#4E4E4E"/>
</g>
</g>
<g style="mix-blend-mode:multiply" opacity="0.33">
<g style="mix-blend-mode:multiply" opacity="0.33">
<path d="M246.583 277.901H529.917V300.297C529.917 302.063 529.214 303.758 527.964 305.007C526.714 306.257 525.018 306.959 523.25 306.959H253.25C251.482 306.959 249.786 306.257 248.536 305.007C247.286 303.758 246.583 302.063 246.583 300.297V277.901Z" fill="#4E4E4E"/>
</g>
</g>
<g style="mix-blend-mode:multiply" opacity="0.25">
<g style="mix-blend-mode:multiply" opacity="0.25">
<path d="M523.25 300.295H253.25C251.482 300.295 249.786 299.593 248.536 298.343C247.286 297.094 246.583 295.399 246.583 293.632V300.295C246.583 302.061 247.286 303.756 248.536 305.005C249.786 306.255 251.482 306.957 253.25 306.957H523.25C525.018 306.957 526.714 306.255 527.964 305.005C529.214 303.756 529.917 302.061 529.917 300.295V293.632C529.917 295.399 529.214 297.094 527.964 298.343C526.714 299.593 525.018 300.295 523.25 300.295Z" fill="#4E4E4E"/>
</g>
</g>
<g style="mix-blend-mode:multiply" opacity="0.33">
<g style="mix-blend-mode:multiply" opacity="0.33">
<path d="M246.583 277.901H529.917V300.297C529.917 302.063 529.214 303.758 527.964 305.007C526.714 306.257 525.018 306.959 523.25 306.959H253.25C251.482 306.959 249.786 306.257 248.536 305.007C247.286 303.758 246.583 302.063 246.583 300.297V277.901Z" fill="#4E4E4E"/>
</g>
<g style="mix-blend-mode:multiply" opacity="0.33">
<path d="M246.583 277.901H529.917V300.297C529.917 302.063 529.214 303.758 527.964 305.007C526.714 306.257 525.018 306.959 523.25 306.959H253.25C251.482 306.959 249.786 306.257 248.536 305.007C247.286 303.758 246.583 302.063 246.583 300.297V277.901Z" stroke="#46505C" stroke-width="3.33333" stroke-linecap="round" stroke-linejoin="round"/>
</g>
</g>
<g style="mix-blend-mode:multiply" opacity="0.33">
<g style="mix-blend-mode:multiply" opacity="0.33">
<path d="M446.585 476.775H329.919C328.078 476.775 326.585 478.267 326.585 480.107V558.388C326.585 560.227 328.078 561.719 329.919 561.719H446.585C448.426 561.719 449.919 560.227 449.919 558.388V480.107C449.919 478.267 448.426 476.775 446.585 476.775Z" fill="#4E4E4E"/>
</g>
</g>
<g style="mix-blend-mode:multiply" opacity="0.33">
<g style="mix-blend-mode:multiply" opacity="0.33">
<path d="M446.585 476.775H329.919C328.078 476.775 326.585 478.267 326.585 480.107V558.388C326.585 560.227 328.078 561.719 329.919 561.719H446.585C448.426 561.719 449.919 560.227 449.919 558.388V480.107C449.919 478.267 448.426 476.775 446.585 476.775Z" fill="#4E4E4E"/>
</g>
<g style="mix-blend-mode:multiply" opacity="0.33">
<path d="M446.585 476.775H329.919C328.078 476.775 326.585 478.267 326.585 480.107V558.388C326.585 560.227 328.078 561.719 329.919 561.719H446.585C448.426 561.719 449.919 560.227 449.919 558.388V480.107C449.919 478.267 448.426 476.775 446.585 476.775Z" stroke="#626C84" stroke-width="1.66667" stroke-linecap="round" stroke-linejoin="round"/>
</g>
</g>
</g>
<path d="M568.334 4.0249H181.667C168.78 4.0249 158.333 14.4649 158.333 27.3429V253.859C158.333 266.737 168.78 277.177 181.667 277.177H568.334C581.22 277.177 591.667 266.737 591.667 253.859V27.3429C591.667 14.4649 581.22 4.0249 568.334 4.0249Z" stroke="black" stroke-width="1.66667" stroke-linecap="round" stroke-linejoin="round"/>
<path d="M568.334 4.0249H181.667C168.78 4.0249 158.333 14.4649 158.333 27.3429V253.859C158.333 266.737 168.78 277.177 181.667 277.177H568.334C581.22 277.177 591.667 266.737 591.667 253.859V27.3429C591.667 14.4649 581.22 4.0249 568.334 4.0249Z" fill="#626C84"/>
<path d="M568.334 4.0249H181.667C168.78 4.0249 158.333 14.4649 158.333 27.3429V253.859C158.333 266.737 168.78 277.177 181.667 277.177H568.334C581.22 277.177 591.667 266.737 591.667 253.859V27.3429C591.667 14.4649 581.22 4.0249 568.334 4.0249Z" fill="#626C84"/>
<g style="mix-blend-mode:multiply" opacity="0.17">
<g style="mix-blend-mode:multiply" opacity="0.17">
<path d="M568.334 4.0249H181.667C168.78 4.0249 158.333 14.4649 158.333 27.3429V238.896C158.333 251.774 168.78 262.214 181.667 262.214H568.334C581.22 262.214 591.667 251.774 591.667 238.896V27.3429C591.667 14.4649 581.22 4.0249 568.334 4.0249Z" fill="#626C84"/>
</g>
</g>
<path opacity="0.1" d="M181.667 10.681H568.334C574.522 10.681 580.457 13.137 584.833 17.51C589.209 21.883 591.667 27.814 591.667 33.999V253.852V27.336C591.667 21.152 589.209 15.2211 584.833 10.8481C580.457 6.47505 574.522 4.01904 568.334 4.01904H181.667C175.478 4.01904 169.544 6.47505 165.168 10.8481C160.792 15.2211 158.333 21.152 158.333 27.336V33.999C158.333 27.814 160.792 21.883 165.168 17.51C169.544 13.137 175.478 10.681 181.667 10.681Z" fill="white"/>
<g opacity="0.1">
<path opacity="0.1" d="M290.378 277.177H317.16L515.748 4.0249H488.967L290.378 277.177Z" fill="white"/>
<path opacity="0.1" d="M332.61 277.177H340.85L539.44 4.0249H531.198L332.61 277.177Z" fill="white"/>
</g>
<path d="M568.334 4.0249H181.667C168.78 4.0249 158.333 14.4649 158.333 27.3429V253.859C158.333 266.737 168.78 277.177 181.667 277.177H568.334C581.22 277.177 591.667 266.737 591.667 253.859V27.3429C591.667 14.4649 581.22 4.0249 568.334 4.0249Z" stroke="#46505C" stroke-width="6.66667" stroke-linecap="round" stroke-linejoin="round"/>
<path d="M561.667 244.664V34.804H188.334V244.664H561.667Z" fill="#FD848E"/>
<g opacity="0.06">
<path opacity="0.06" d="M315.682 244.664H342.464L495.037 34.804H468.255L315.682 244.664Z" fill="white"/>
<path opacity="0.06" d="M357.914 244.664H366.155L518.729 34.804H510.489L357.914 244.664Z" fill="white"/>
</g>
<path d="M561.667 244.664V34.804H188.334V244.664H561.667Z" stroke="#46505C" stroke-width="1.66667" stroke-linecap="round" stroke-linejoin="round"/>
<path d="M568.334 277.177H181.667C168.78 277.177 158.333 287.617 158.333 300.495V540.335C158.333 553.213 168.78 563.653 181.667 563.653H568.334C581.22 563.653 591.667 553.213 591.667 540.335V300.495C591.667 287.617 581.22 277.177 568.334 277.177Z" fill="#E6F3FF"/>
<path d="M585 540.336V300.495C585 291.297 577.538 283.84 568.333 283.84H181.667C172.462 283.84 165 291.297 165 300.495V540.336C165 549.535 172.462 556.992 181.667 556.992H568.333C577.538 556.992 585 549.535 585 540.336Z" fill="white" stroke="#E6F3FF" stroke-width="3.33333" stroke-miterlimit="10"/>
<path d="M348.249 550.628H401.749C403.517 550.628 405.212 551.33 406.463 552.579C407.713 553.829 408.415 555.523 408.415 557.29V563.653H341.582V557.29C341.582 555.523 342.284 553.829 343.535 552.579C344.785 551.33 346.481 550.628 348.249 550.628Z" fill="#E6F3FF"/>
<path d="M568.334 277.177H181.667C168.78 277.177 158.333 287.617 158.333 300.495V540.335C158.333 553.213 168.78 563.653 181.667 563.653H568.334C581.22 563.653 591.667 553.213 591.667 540.335V300.495C591.667 287.617 581.22 277.177 568.334 277.177Z" stroke="#46505C" stroke-width="6.66667" stroke-linecap="round" stroke-linejoin="round"/>
<path d="M561.667 299.527H188.333C185.572 299.527 183.333 301.764 183.333 304.524V447.762C183.333 450.522 185.572 452.759 188.333 452.759H561.667C564.428 452.759 566.667 450.522 566.667 447.762V304.524C566.667 301.764 564.428 299.527 561.667 299.527Z" fill="#E6F3FF"/>
<path d="M256.807 415.283H236.807C235.886 415.283 235.14 416.029 235.14 416.949V436.935C235.14 437.855 235.886 438.601 236.807 438.601H256.807C257.727 438.601 258.473 437.855 258.473 436.935V416.949C258.473 416.029 257.727 415.283 256.807 415.283Z" stroke="#626C84" stroke-width="1.66667" stroke-linecap="round" stroke-linejoin="round"/>
<path d="M220.743 415.283H200.743C199.822 415.283 199.076 416.029 199.076 416.949V436.935C199.076 437.855 199.822 438.601 200.743 438.601H220.743C221.663 438.601 222.41 437.855 222.41 436.935V416.949C222.41 416.029 221.663 415.283 220.743 415.283Z" stroke="#626C84" stroke-width="1.66667" stroke-linecap="round" stroke-linejoin="round"/>
<path d="M437.129 415.283H272.872C271.952 415.283 271.206 416.029 271.206 416.949V436.935C271.206 437.855 271.952 438.601 272.872 438.601H437.129C438.049 438.601 438.796 437.855 438.796 436.935V416.949C438.796 416.029 438.049 415.283 437.129 415.283Z" stroke="#626C84" stroke-width="1.66667" stroke-linecap="round" stroke-linejoin="round"/>
<path d="M473.193 415.283H453.193C452.273 415.283 451.526 416.029 451.526 416.949V436.935C451.526 437.855 452.273 438.601 453.193 438.601H473.193C474.113 438.601 474.86 437.855 474.86 436.935V416.949C474.86 416.029 474.113 415.283 473.193 415.283Z" stroke="#626C84" stroke-width="1.66667" stroke-linecap="round" stroke-linejoin="round"/>
<path d="M525.924 428.4H512.59C511.67 428.4 510.924 429.146 510.924 430.066V436.936C510.924 437.856 511.67 438.602 512.59 438.602H525.924C526.844 438.602 527.591 437.856 527.591 436.936V430.066C527.591 429.146 526.844 428.4 525.924 428.4Z" stroke="#626C84" stroke-width="1.66667" stroke-linecap="round" stroke-linejoin="round"/>
<path d="M525.924 415.283H512.59C511.67 415.283 510.924 416.029 510.924 416.949V423.819C510.924 424.739 511.67 425.485 512.59 425.485H525.924C526.844 425.485 527.591 424.739 527.591 423.819V416.949C527.591 416.029 526.844 415.283 525.924 415.283Z" stroke="#626C84" stroke-width="1.66667" stroke-linecap="round" stroke-linejoin="round"/>
<path d="M549.257 428.4H535.924C535.003 428.4 534.257 429.146 534.257 430.066V436.936C534.257 437.856 535.003 438.602 535.924 438.602H549.257C550.177 438.602 550.924 437.856 550.924 436.936V430.066C550.924 429.146 550.177 428.4 549.257 428.4Z" stroke="#626C84" stroke-width="1.66667" stroke-linecap="round" stroke-linejoin="round"/>
<path d="M502.59 428.4H489.257C488.337 428.4 487.59 429.146 487.59 430.066V436.936C487.59 437.856 488.337 438.602 489.257 438.602H502.59C503.511 438.602 504.257 437.856 504.257 436.936V430.066C504.257 429.146 503.511 428.4 502.59 428.4Z" stroke="#626C84" stroke-width="1.66667" stroke-linecap="round" stroke-linejoin="round"/>
<path d="M253.475 382.107H200.743C199.822 382.107 199.076 382.853 199.076 383.773V403.76C199.076 404.68 199.822 405.425 200.743 405.425H253.475C254.395 405.425 255.141 404.68 255.141 403.76V383.773C255.141 382.853 254.395 382.107 253.475 382.107Z" stroke="#626C84" stroke-width="1.66667" stroke-linecap="round" stroke-linejoin="round"/>
<path d="M289.84 382.107H269.84C268.919 382.107 268.173 382.853 268.173 383.773V403.76C268.173 404.68 268.919 405.425 269.84 405.425H289.84C290.76 405.425 291.506 404.68 291.506 403.76V383.773C291.506 382.853 290.76 382.107 289.84 382.107Z" stroke="#626C84" stroke-width="1.66667" stroke-linecap="round" stroke-linejoin="round"/>
<path d="M325.903 382.107H305.903C304.983 382.107 304.236 382.853 304.236 383.773V403.76C304.236 404.68 304.983 405.425 305.903 405.425H325.903C326.823 405.425 327.57 404.68 327.57 403.76V383.773C327.57 382.853 326.823 382.107 325.903 382.107Z" stroke="#626C84" stroke-width="1.66667" stroke-linecap="round" stroke-linejoin="round"/>
<path d="M361.968 382.107H341.968C341.048 382.107 340.302 382.853 340.302 383.773V403.76C340.302 404.68 341.048 405.425 341.968 405.425H361.968C362.889 405.425 363.635 404.68 363.635 403.76V383.773C363.635 382.853 362.889 382.107 361.968 382.107Z" stroke="#626C84" stroke-width="1.66667" stroke-linecap="round" stroke-linejoin="round"/>
<path d="M398.031 382.107H378.031C377.111 382.107 376.365 382.853 376.365 383.773V403.76C376.365 404.68 377.111 405.425 378.031 405.425H398.031C398.952 405.425 399.698 404.68 399.698 403.76V383.773C399.698 382.853 398.952 382.107 398.031 382.107Z" stroke="#626C84" stroke-width="1.66667" stroke-linecap="round" stroke-linejoin="round"/>
<path d="M434.096 382.107H414.096C413.176 382.107 412.43 382.853 412.43 383.773V403.76C412.43 404.68 413.176 405.425 414.096 405.425H434.096C435.017 405.425 435.763 404.68 435.763 403.76V383.773C435.763 382.853 435.017 382.107 434.096 382.107Z" stroke="#626C84" stroke-width="1.66667" stroke-linecap="round" stroke-linejoin="round"/>
<path d="M470.16 382.107H450.16C449.24 382.107 448.494 382.853 448.494 383.773V403.76C448.494 404.68 449.24 405.425 450.16 405.425H470.16C471.081 405.425 471.827 404.68 471.827 403.76V383.773C471.827 382.853 471.081 382.107 470.16 382.107Z" stroke="#626C84" stroke-width="1.66667" stroke-linecap="round" stroke-linejoin="round"/>
<path d="M549.257 382.107H489.257C488.337 382.107 487.59 382.853 487.59 383.773V403.76C487.59 404.68 488.337 405.425 489.257 405.425H549.257C550.177 405.425 550.924 404.68 550.924 403.76V383.773C550.924 382.853 550.177 382.107 549.257 382.107Z" stroke="#626C84" stroke-width="1.66667" stroke-linecap="round" stroke-linejoin="round"/>
<path d="M276.807 347.996H256.807C255.886 347.996 255.14 348.742 255.14 349.662V369.648C255.14 370.568 255.886 371.314 256.807 371.314H276.807C277.727 371.314 278.473 370.568 278.473 369.648V349.662C278.473 348.742 277.727 347.996 276.807 347.996Z" stroke="#626C84" stroke-width="1.66667" stroke-linecap="round" stroke-linejoin="round"/>
<path d="M240.743 347.996H200.743C199.822 347.996 199.076 348.742 199.076 349.662V369.648C199.076 370.568 199.822 371.314 200.743 371.314H240.743C241.663 371.314 242.41 370.568 242.41 369.648V349.662C242.41 348.742 241.663 347.996 240.743 347.996Z" stroke="#626C84" stroke-width="1.66667" stroke-linecap="round" stroke-linejoin="round"/>
<path d="M312.872 347.996H292.872C291.952 347.996 291.206 348.742 291.206 349.662V369.648C291.206 370.568 291.952 371.314 292.872 371.314H312.872C313.793 371.314 314.539 370.568 314.539 369.648V349.662C314.539 348.742 313.793 347.996 312.872 347.996Z" stroke="#626C84" stroke-width="1.66667" stroke-linecap="round" stroke-linejoin="round"/>
<path d="M348.934 347.996H328.934C328.014 347.996 327.268 348.742 327.268 349.662V369.648C327.268 370.568 328.014 371.314 328.934 371.314H348.934C349.855 371.314 350.601 370.568 350.601 369.648V349.662C350.601 348.742 349.855 347.996 348.934 347.996Z" stroke="#626C84" stroke-width="1.66667" stroke-linecap="round" stroke-linejoin="round"/>
<path d="M385 347.996H365C364.079 347.996 363.333 348.742 363.333 349.662V369.648C363.333 370.568 364.079 371.314 365 371.314H385C385.92 371.314 386.666 370.568 386.666 369.648V349.662C386.666 348.742 385.92 347.996 385 347.996Z" stroke="#626C84" stroke-width="1.66667" stroke-linecap="round" stroke-linejoin="round"/>
<path d="M421.065 347.996H401.065C400.145 347.996 399.398 348.742 399.398 349.662V369.648C399.398 370.568 400.145 371.314 401.065 371.314H421.065C421.986 371.314 422.732 370.568 422.732 369.648V349.662C422.732 348.742 421.986 347.996 421.065 347.996Z" stroke="#626C84" stroke-width="1.66667" stroke-linecap="round" stroke-linejoin="round"/>
<path d="M457.128 347.996H437.128C436.208 347.996 435.461 348.742 435.461 349.662V369.648C435.461 370.568 436.208 371.314 437.128 371.314H457.128C458.049 371.314 458.795 370.568 458.795 369.648V349.662C458.795 348.742 458.049 347.996 457.128 347.996Z" stroke="#626C84" stroke-width="1.66667" stroke-linecap="round" stroke-linejoin="round"/>
<path d="M493.193 347.996H473.193C472.273 347.996 471.526 348.742 471.526 349.662V369.648C471.526 370.568 472.273 371.314 473.193 371.314H493.193C494.113 371.314 494.86 370.568 494.86 369.648V349.662C494.86 348.742 494.113 347.996 493.193 347.996Z" stroke="#626C84" stroke-width="1.66667" stroke-linecap="round" stroke-linejoin="round"/>
<path d="M549.257 347.996H509.257C508.337 347.996 507.59 348.742 507.59 349.662V369.648C507.59 370.568 508.337 371.314 509.257 371.314H549.257C550.177 371.314 550.924 370.568 550.924 369.648V349.662C550.924 348.742 550.177 347.996 549.257 347.996Z" stroke="#626C84" stroke-width="1.66667" stroke-linecap="round" stroke-linejoin="round"/>
<path d="M257.245 315.35H237.245C236.325 315.35 235.579 316.095 235.579 317.015V337.002C235.579 337.922 236.325 338.667 237.245 338.667H257.245C258.166 338.667 258.912 337.922 258.912 337.002V317.015C258.912 316.095 258.166 315.35 257.245 315.35Z" stroke="#626C84" stroke-width="1.66667" stroke-linecap="round" stroke-linejoin="round"/>
<path d="M220.743 315.35H200.743C199.822 315.35 199.076 316.095 199.076 317.015V337.002C199.076 337.922 199.822 338.667 200.743 338.667H220.743C221.663 338.667 222.41 337.922 222.41 337.002V317.015C222.41 316.095 221.663 315.35 220.743 315.35Z" stroke="#626C84" stroke-width="1.66667" stroke-linecap="round" stroke-linejoin="round"/>
<path d="M293.747 315.35H273.747C272.826 315.35 272.08 316.095 272.08 317.015V337.002C272.08 337.922 272.826 338.667 273.747 338.667H293.747C294.667 338.667 295.413 337.922 295.413 337.002V317.015C295.413 316.095 294.667 315.35 293.747 315.35Z" stroke="#626C84" stroke-width="1.66667" stroke-linecap="round" stroke-linejoin="round"/>
<path d="M330.248 315.35H310.248C309.328 315.35 308.582 316.095 308.582 317.015V337.002C308.582 337.922 309.328 338.667 310.248 338.667H330.248C331.169 338.667 331.915 337.922 331.915 337.002V317.015C331.915 316.095 331.169 315.35 330.248 315.35Z" stroke="#626C84" stroke-width="1.66667" stroke-linecap="round" stroke-linejoin="round"/>
<path d="M366.75 315.35H346.75C345.829 315.35 345.083 316.095 345.083 317.015V337.002C345.083 337.922 345.829 338.667 346.75 338.667H366.75C367.67 338.667 368.416 337.922 368.416 337.002V317.015C368.416 316.095 367.67 315.35 366.75 315.35Z" stroke="#626C84" stroke-width="1.66667" stroke-linecap="round" stroke-linejoin="round"/>
<path d="M403.25 315.35H383.25C382.33 315.35 381.583 316.095 381.583 317.015V337.002C381.583 337.922 382.33 338.667 383.25 338.667H403.25C404.171 338.667 404.917 337.922 404.917 337.002V317.015C404.917 316.095 404.171 315.35 403.25 315.35Z" stroke="#626C84" stroke-width="1.66667" stroke-linecap="round" stroke-linejoin="round"/>
<path d="M439.752 315.35H419.752C418.831 315.35 418.085 316.095 418.085 317.015V337.002C418.085 337.922 418.831 338.667 419.752 338.667H439.752C440.672 338.667 441.418 337.922 441.418 337.002V317.015C441.418 316.095 440.672 315.35 439.752 315.35Z" stroke="#626C84" stroke-width="1.66667" stroke-linecap="round" stroke-linejoin="round"/>
<path d="M476.253 315.35H456.253C455.333 315.35 454.586 316.095 454.586 317.015V337.002C454.586 337.922 455.333 338.667 456.253 338.667H476.253C477.174 338.667 477.92 337.922 477.92 337.002V317.015C477.92 316.095 477.174 315.35 476.253 315.35Z" stroke="#626C84" stroke-width="1.66667" stroke-linecap="round" stroke-linejoin="round"/>
<path d="M512.755 315.35H492.755C491.834 315.35 491.088 316.095 491.088 317.015V337.002C491.088 337.922 491.834 338.667 492.755 338.667H512.755C513.675 338.667 514.421 337.922 514.421 337.002V317.015C514.421 316.095 513.675 315.35 512.755 315.35Z" stroke="#626C84" stroke-width="1.66667" stroke-linecap="round" stroke-linejoin="round"/>
<path d="M549.257 315.35H529.257C528.337 315.35 527.59 316.095 527.59 317.015V337.002C527.59 337.922 528.337 338.667 529.257 338.667H549.257C550.177 338.667 550.924 337.922 550.924 337.002V317.015C550.924 316.095 550.177 315.35 549.257 315.35Z" stroke="#626C84" stroke-width="1.66667" stroke-linecap="round" stroke-linejoin="round"/>
<path d="M256.807 415.283H236.807C235.886 415.283 235.14 416.029 235.14 416.949V436.935C235.14 437.855 235.886 438.601 236.807 438.601H256.807C257.727 438.601 258.473 437.855 258.473 436.935V416.949C258.473 416.029 257.727 415.283 256.807 415.283Z" fill="#626C84"/>
<path d="M220.743 415.283H200.743C199.822 415.283 199.076 416.029 199.076 416.949V436.935C199.076 437.855 199.822 438.601 200.743 438.601H220.743C221.663 438.601 222.41 437.855 222.41 436.935V416.949C222.41 416.029 221.663 415.283 220.743 415.283Z" fill="#626C84"/>
<path d="M437.129 415.283H272.872C271.952 415.283 271.206 416.029 271.206 416.949V436.935C271.206 437.855 271.952 438.601 272.872 438.601H437.129C438.049 438.601 438.796 437.855 438.796 436.935V416.949C438.796 416.029 438.049 415.283 437.129 415.283Z" fill="#626C84"/>
<path d="M473.193 415.283H453.193C452.273 415.283 451.526 416.029 451.526 416.949V436.935C451.526 437.855 452.273 438.601 453.193 438.601H473.193C474.113 438.601 474.86 437.855 474.86 436.935V416.949C474.86 416.029 474.113 415.283 473.193 415.283Z" fill="#626C84"/>
<path d="M525.924 428.4H512.59C511.67 428.4 510.924 429.146 510.924 430.066V436.936C510.924 437.856 511.67 438.602 512.59 438.602H525.924C526.844 438.602 527.591 437.856 527.591 436.936V430.066C527.591 429.146 526.844 428.4 525.924 428.4Z" fill="#626C84"/>
<path d="M525.924 415.283H512.59C511.67 415.283 510.924 416.029 510.924 416.949V423.819C510.924 424.739 511.67 425.485 512.59 425.485H525.924C526.844 425.485 527.591 424.739 527.591 423.819V416.949C527.591 416.029 526.844 415.283 525.924 415.283Z" fill="#626C84"/>
<path d="M549.257 428.4H535.924C535.003 428.4 534.257 429.146 534.257 430.066V436.936C534.257 437.856 535.003 438.602 535.924 438.602H549.257C550.177 438.602 550.924 437.856 550.924 436.936V430.066C550.924 429.146 550.177 428.4 549.257 428.4Z" fill="#626C84"/>
<path d="M502.59 428.4H489.257C488.337 428.4 487.59 429.146 487.59 430.066V436.936C487.59 437.856 488.337 438.602 489.257 438.602H502.59C503.511 438.602 504.257 437.856 504.257 436.936V430.066C504.257 429.146 503.511 428.4 502.59 428.4Z" fill="#626C84"/>
<path d="M253.475 382.107H200.743C199.822 382.107 199.076 382.853 199.076 383.773V403.76C199.076 404.68 199.822 405.425 200.743 405.425H253.475C254.395 405.425 255.141 404.68 255.141 403.76V383.773C255.141 382.853 254.395 382.107 253.475 382.107Z" fill="#626C84"/>
<path d="M289.84 382.107H269.84C268.919 382.107 268.173 382.853 268.173 383.773V403.76C268.173 404.68 268.919 405.425 269.84 405.425H289.84C290.76 405.425 291.506 404.68 291.506 403.76V383.773C291.506 382.853 290.76 382.107 289.84 382.107Z" fill="#626C84"/>
<path d="M325.903 382.107H305.903C304.983 382.107 304.236 382.853 304.236 383.773V403.76C304.236 404.68 304.983 405.425 305.903 405.425H325.903C326.823 405.425 327.57 404.68 327.57 403.76V383.773C327.57 382.853 326.823 382.107 325.903 382.107Z" fill="#626C84"/>
<path d="M361.968 382.107H341.968C341.048 382.107 340.302 382.853 340.302 383.773V403.76C340.302 404.68 341.048 405.425 341.968 405.425H361.968C362.889 405.425 363.635 404.68 363.635 403.76V383.773C363.635 382.853 362.889 382.107 361.968 382.107Z" fill="#626C84"/>
<path d="M398.031 382.107H378.031C377.111 382.107 376.365 382.853 376.365 383.773V403.76C376.365 404.68 377.111 405.425 378.031 405.425H398.031C398.952 405.425 399.698 404.68 399.698 403.76V383.773C399.698 382.853 398.952 382.107 398.031 382.107Z" fill="#626C84"/>
<path d="M434.096 382.107H414.096C413.176 382.107 412.43 382.853 412.43 383.773V403.76C412.43 404.68 413.176 405.425 414.096 405.425H434.096C435.017 405.425 435.763 404.68 435.763 403.76V383.773C435.763 382.853 435.017 382.107 434.096 382.107Z" fill="#626C84"/>
<path d="M470.16 382.107H450.16C449.24 382.107 448.494 382.853 448.494 383.773V403.76C448.494 404.68 449.24 405.425 450.16 405.425H470.16C471.081 405.425 471.827 404.68 471.827 403.76V383.773C471.827 382.853 471.081 382.107 470.16 382.107Z" fill="#626C84"/>
<path d="M549.257 382.107H489.257C488.337 382.107 487.59 382.853 487.59 383.773V403.76C487.59 404.68 488.337 405.425 489.257 405.425H549.257C550.177 405.425 550.924 404.68 550.924 403.76V383.773C550.924 382.853 550.177 382.107 549.257 382.107Z" fill="#626C84"/>
<path d="M276.807 347.996H256.807C255.886 347.996 255.14 348.742 255.14 349.662V369.648C255.14 370.568 255.886 371.314 256.807 371.314H276.807C277.727 371.314 278.473 370.568 278.473 369.648V349.662C278.473 348.742 277.727 347.996 276.807 347.996Z" fill="#626C84"/>
<path d="M240.743 347.996H200.743C199.822 347.996 199.076 348.742 199.076 349.662V369.648C199.076 370.568 199.822 371.314 200.743 371.314H240.743C241.663 371.314 242.41 370.568 242.41 369.648V349.662C242.41 348.742 241.663 347.996 240.743 347.996Z" fill="#626C84"/>
<path d="M312.872 347.996H292.872C291.952 347.996 291.206 348.742 291.206 349.662V369.648C291.206 370.568 291.952 371.314 292.872 371.314H312.872C313.793 371.314 314.539 370.568 314.539 369.648V349.662C314.539 348.742 313.793 347.996 312.872 347.996Z" fill="#626C84"/>
<path d="M348.934 347.996H328.934C328.014 347.996 327.268 348.742 327.268 349.662V369.648C327.268 370.568 328.014 371.314 328.934 371.314H348.934C349.855 371.314 350.601 370.568 350.601 369.648V349.662C350.601 348.742 349.855 347.996 348.934 347.996Z" fill="#626C84"/>
<path d="M385 347.996H365C364.079 347.996 363.333 348.742 363.333 349.662V369.648C363.333 370.568 364.079 371.314 365 371.314H385C385.92 371.314 386.666 370.568 386.666 369.648V349.662C386.666 348.742 385.92 347.996 385 347.996Z" fill="#626C84"/>
<path d="M421.065 347.996H401.065C400.145 347.996 399.398 348.742 399.398 349.662V369.648C399.398 370.568 400.145 371.314 401.065 371.314H421.065C421.986 371.314 422.732 370.568 422.732 369.648V349.662C422.732 348.742 421.986 347.996 421.065 347.996Z" fill="#626C84"/>
<path d="M457.128 347.996H437.128C436.208 347.996 435.461 348.742 435.461 349.662V369.648C435.461 370.568 436.208 371.314 437.128 371.314H457.128C458.049 371.314 458.795 370.568 458.795 369.648V349.662C458.795 348.742 458.049 347.996 457.128 347.996Z" fill="#626C84"/>
<path d="M493.193 347.996H473.193C472.273 347.996 471.526 348.742 471.526 349.662V369.648C471.526 370.568 472.273 371.314 473.193 371.314H493.193C494.113 371.314 494.86 370.568 494.86 369.648V349.662C494.86 348.742 494.113 347.996 493.193 347.996Z" fill="#626C84"/>
<path d="M549.257 347.996H509.257C508.337 347.996 507.59 348.742 507.59 349.662V369.648C507.59 370.568 508.337 371.314 509.257 371.314H549.257C550.177 371.314 550.924 370.568 550.924 369.648V349.662C550.924 348.742 550.177 347.996 549.257 347.996Z" fill="#626C84"/>
<path d="M257.245 315.35H237.245C236.325 315.35 235.579 316.095 235.579 317.015V337.002C235.579 337.922 236.325 338.667 237.245 338.667H257.245C258.166 338.667 258.912 337.922 258.912 337.002V317.015C258.912 316.095 258.166 315.35 257.245 315.35Z" fill="#626C84"/>
<path d="M220.743 315.35H200.743C199.822 315.35 199.076 316.095 199.076 317.015V337.002C199.076 337.922 199.822 338.667 200.743 338.667H220.743C221.663 338.667 222.41 337.922 222.41 337.002V317.015C222.41 316.095 221.663 315.35 220.743 315.35Z" fill="#626C84"/>
<path d="M293.747 315.35H273.747C272.826 315.35 272.08 316.095 272.08 317.015V337.002C272.08 337.922 272.826 338.667 273.747 338.667H293.747C294.667 338.667 295.413 337.922 295.413 337.002V317.015C295.413 316.095 294.667 315.35 293.747 315.35Z" fill="#626C84"/>
<path d="M330.248 315.35H310.248C309.328 315.35 308.582 316.095 308.582 317.015V337.002C308.582 337.922 309.328 338.667 310.248 338.667H330.248C331.169 338.667 331.915 337.922 331.915 337.002V317.015C331.915 316.095 331.169 315.35 330.248 315.35Z" fill="#626C84"/>
<path d="M366.75 315.35H346.75C345.829 315.35 345.083 316.095 345.083 317.015V337.002C345.083 337.922 345.829 338.667 346.75 338.667H366.75C367.67 338.667 368.416 337.922 368.416 337.002V317.015C368.416 316.095 367.67 315.35 366.75 315.35Z" fill="#626C84"/>
<path d="M403.25 315.35H383.25C382.33 315.35 381.583 316.095 381.583 317.015V337.002C381.583 337.922 382.33 338.667 383.25 338.667H403.25C404.171 338.667 404.917 337.922 404.917 337.002V317.015C404.917 316.095 404.171 315.35 403.25 315.35Z" fill="#626C84"/>
<path d="M439.752 315.35H419.752C418.831 315.35 418.085 316.095 418.085 317.015V337.002C418.085 337.922 418.831 338.667 419.752 338.667H439.752C440.672 338.667 441.418 337.922 441.418 337.002V317.015C441.418 316.095 440.672 315.35 439.752 315.35Z" fill="#626C84"/>
<path d="M476.253 315.35H456.253C455.333 315.35 454.586 316.095 454.586 317.015V337.002C454.586 337.922 455.333 338.667 456.253 338.667H476.253C477.174 338.667 477.92 337.922 477.92 337.002V317.015C477.92 316.095 477.174 315.35 476.253 315.35Z" fill="#626C84"/>
<path d="M512.755 315.35H492.755C491.834 315.35 491.088 316.095 491.088 317.015V337.002C491.088 337.922 491.834 338.667 492.755 338.667H512.755C513.675 338.667 514.421 337.922 514.421 337.002V317.015C514.421 316.095 513.675 315.35 512.755 315.35Z" fill="#626C84"/>
<path d="M549.257 315.35H529.257C528.337 315.35 527.59 316.095 527.59 317.015V337.002C527.59 337.922 528.337 338.667 529.257 338.667H549.257C550.177 338.667 550.924 337.922 550.924 337.002V317.015C550.924 316.095 550.177 315.35 549.257 315.35Z" fill="#626C84"/>
<path d="M233.333 262.214H516.667V284.609C516.667 286.376 515.964 288.07 514.714 289.32C513.464 290.569 511.768 291.271 510 291.271H240C238.232 291.271 236.536 290.569 235.286 289.32C234.036 288.07 233.333 286.376 233.333 284.609V262.214Z" fill="#626C84"/>
<path opacity="0.12" d="M516.667 262.214H233.333V265.545H516.667V262.214Z" fill="white"/>
<g style="mix-blend-mode:multiply" opacity="0.25">
<g style="mix-blend-mode:multiply" opacity="0.25">
<path d="M510 284.608H240C238.232 284.608 236.536 283.906 235.286 282.656C234.036 281.407 233.333 279.712 233.333 277.945V284.608C233.333 286.374 234.036 288.069 235.286 289.318C236.536 290.568 238.232 291.27 240 291.27H510C511.768 291.27 513.464 290.568 514.714 289.318C515.964 288.069 516.667 286.374 516.667 284.608V277.945C516.667 279.712 515.964 281.407 514.714 282.656C513.464 283.906 511.768 284.608 510 284.608Z" fill="#626C84"/>
</g>
</g>
<path d="M233.333 262.214H516.667V284.609C516.667 286.376 515.964 288.07 514.714 289.32C513.464 290.569 511.768 291.271 510 291.271H240C238.232 291.271 236.536 290.569 235.286 289.32C234.036 288.07 233.333 286.376 233.333 284.609V262.214Z" stroke="#46505C" stroke-width="3.33333" stroke-linecap="round" stroke-linejoin="round"/>
<path d="M433.333 461.087H316.666C314.825 461.087 313.333 462.578 313.333 464.418V542.699C313.333 544.539 314.825 546.03 316.666 546.03H433.333C435.174 546.03 436.666 544.539 436.666 542.699V464.418C436.666 462.578 435.174 461.087 433.333 461.087Z" fill="#E6F3FF"/>
<path d="M433.333 461.087H316.666C314.825 461.087 313.333 462.578 313.333 464.418V542.699C313.333 544.539 314.825 546.03 316.666 546.03H433.333C435.174 546.03 436.666 544.539 436.666 542.699V464.418C436.666 462.578 435.174 461.087 433.333 461.087Z" stroke="#626C84" stroke-width="1.66667" stroke-linecap="round" stroke-linejoin="round"/>
<path opacity="0.52" d="M375 25.9229C377.761 25.9229 380 23.6859 380 20.9259C380 18.1669 377.761 15.9299 375 15.9299C372.239 15.9299 370 18.1669 370 20.9259C370 23.6859 372.239 25.9229 375 25.9229Z" fill="white"/>
<path d="M375 25.9229C377.761 25.9229 380 23.6859 380 20.9259C380 18.1669 377.761 15.9299 375 15.9299C372.239 15.9299 370 18.1669 370 20.9259C370 23.6859 372.239 25.9229 375 25.9229Z" stroke="#46505C" stroke-width="1.66667" stroke-linecap="round" stroke-linejoin="round"/>
<path d="M478.933 56.031H458.933C458.013 56.031 457.267 56.777 457.267 57.697C457.267 58.617 458.013 59.362 458.933 59.362H478.933C479.854 59.362 480.6 58.617 480.6 57.697C480.6 56.777 479.854 56.031 478.933 56.031Z" fill="white"/>
<path d="M522.223 56.031H502.223C501.303 56.031 500.557 56.777 500.557 57.697C500.557 58.617 501.303 59.362 502.223 59.362H522.223C523.144 59.362 523.89 58.617 523.89 57.697C523.89 56.777 523.144 56.031 522.223 56.031Z" fill="white"/>
<path d="M435.646 56.031H415.646C414.725 56.031 413.979 56.777 413.979 57.697C413.979 58.617 414.725 59.362 415.646 59.362H435.646C436.566 59.362 437.312 58.617 437.312 57.697C437.312 56.777 436.566 56.031 435.646 56.031Z" fill="white"/>
<path d="M220.388 66.622C224.841 66.622 228.45 63.015 228.45 58.566C228.45 54.117 224.841 50.51 220.388 50.51C215.936 50.51 212.327 54.117 212.327 58.566C212.327 63.015 215.936 66.622 220.388 66.622Z" fill="white"/>
<g opacity="0.72">
<path opacity="0.72" d="M459.263 146.773H290.54V152.844H459.263V146.773Z" fill="white"/>
<path opacity="0.72" d="M437.927 126.624H311.878V132.783H437.927V126.624Z" fill="white"/>
</g>
<path d="M404.008 193.968H355.99C350.945 193.968 346.855 198.055 346.855 203.097C346.855 208.138 350.945 212.226 355.99 212.226H404.008C409.053 212.226 413.143 208.138 413.143 203.097C413.143 198.055 409.053 193.968 404.008 193.968Z" stroke="white" stroke-width="1.66667" stroke-miterlimit="10"/>
</svg>
