<svg width="569" height="263" viewBox="0 0 569 263" fill="none" xmlns="http://www.w3.org/2000/svg">
<path d="M203.5 258.7H4" stroke="#523160" stroke-width="8" stroke-miterlimit="10" stroke-linecap="round" stroke-linejoin="round"/>
<path d="M564.5 258.7H546.4" stroke="#523160" stroke-width="8" stroke-miterlimit="10" stroke-linecap="round" stroke-linejoin="round"/>
<path d="M112.9 258.7C87.6 258.7 67 238.1 67 212.8C67 187.5 87.6 166.9 112.9 166.9C138.2 166.9 158.8 187.5 158.8 212.8C158.8 238.1 138.2 258.7 112.9 258.7Z" fill="#5C3F6B"/>
<path d="M112.9 258.7C87.6 258.7 67 238.1 67 212.8C67 187.5 87.6 166.9 112.9 166.9C138.2 166.9 158.8 187.5 158.8 212.8C158.8 238.1 138.2 258.7 112.9 258.7Z" stroke="#523160" stroke-width="8" stroke-miterlimit="10" stroke-linecap="round" stroke-linejoin="round"/>
<path d="M112.9 236.8C99.7 236.8 88.9 226 88.9 212.8C88.9 199.6 99.7 188.8 112.9 188.8C126.1 188.8 136.9 199.6 136.9 212.8C136.9 226 126.1 236.8 112.9 236.8Z" fill="#FDC858"/>
<path d="M112.9 236.8C99.7 236.8 88.9 226 88.9 212.8C88.9 199.6 99.7 188.8 112.9 188.8C126.1 188.8 136.9 199.6 136.9 212.8C136.9 226 126.1 236.8 112.9 236.8Z" stroke="#523160" stroke-width="8" stroke-miterlimit="10" stroke-linecap="round" stroke-linejoin="round"/>
<path d="M112.9 220.7C108.5 220.7 105 217.1 105 212.8C105 208.4 108.6 204.9 112.9 204.9C117.3 204.9 120.8 208.5 120.8 212.8C120.8 217.1 117.3 220.7 112.9 220.7Z" fill="#FDC858"/>
<path d="M112.9 220.7C108.5 220.7 105 217.1 105 212.8C105 208.4 108.6 204.9 112.9 204.9C117.3 204.9 120.8 208.5 120.8 212.8C120.8 217.1 117.3 220.7 112.9 220.7Z" stroke="#523160" stroke-width="8" stroke-miterlimit="10" stroke-linecap="round" stroke-linejoin="round"/>
<path d="M479.9 73.1L470.5 37.4C466.8 23.1 454.6 12.7 439.9 11.1C397.9 6.60001 347 4 287.6 4C219.6 4 115.1 9.19999 83.7 12.8C78 13.4 73.1 17.1 70.8 22.4L51.9 66.6C43.2 82.2 37.9 99.4 36.4 117.2L36 216.6L57.1 217C57 215.6 56.9 214.2 56.9 212.8C56.9 181.9 81.9 156.9 112.8 156.9C143.7 156.9 168.7 181.9 168.7 212.8C168.7 214.6 168.6 216.4 168.4 218.1L315.4 219.9C315.1 217.6 314.9 215.2 314.9 212.8C314.9 181.9 339.9 156.9 370.8 156.9C401.7 156.9 426.7 181.9 426.7 212.8C426.7 215.6 426.5 218.3 426.1 221L485.4 221.6V118C485.7 102.9 483.7 87.8 479.9 73.1Z" fill="#8E63AD"/>
<g opacity="0.36">
<path opacity="0.36" d="M47.2 216.6L47.6 117.2C49.1 99.4 54.4 82.2 63.1 66.6L82 22.4C84.3 17.1 89.2 13.5 94.9 12.8C125.4 9.29999 224.7 4.3 292.7 4C291 4 289.3 4 287.6 4C219.6 4 115.1 9.19999 83.7 12.8C78 13.4 73.1 17.1 70.8 22.4L51.9 66.6C43.2 82.2 37.9 99.4 36.4 117.2L36 216.6L57.1 217C57.1 216.9 57.1 216.9 57.1 216.8L47.2 216.6Z" fill="#8E63AD"/>
<path opacity="0.36" d="M437.5 221C437.9 218.3 438.1 215.6 438.1 212.8C438.1 181.9 413.1 156.9 382.2 156.9C380.3 156.9 378.5 157 376.6 157.2C404.9 160 426.9 183.8 426.9 212.8C426.9 215.6 426.7 218.3 426.3 221L485.6 221.6V221.5L437.5 221Z" fill="#8E63AD"/>
<path opacity="0.36" d="M179.7 218C179.9 216.3 180 214.5 180 212.7C180 181.8 155 156.8 124.1 156.8C122.2 156.8 120.4 156.9 118.5 157.1C146.8 159.9 168.8 183.7 168.8 212.7C168.8 214.5 168.7 216.3 168.5 218L315.5 219.8V219.7L179.7 218Z" fill="#8E63AD"/>
</g>
<path opacity="0.36" d="M179.9 209H313.5V195.7H177.3C178.7 200 179.5 204.4 179.9 209Z" fill="#8E63AD"/>
<g opacity="0.25">
<path opacity="0.25" d="M481.9 72.1L472.5 36.4C468.8 22.1 456.6 11.7 441.9 10.1C399.9 5.60001 349 3 289.6 3C221.6 3 117.1 8.19999 85.7 11.8C80.8 12.4 76.4 15.2 73.9 19.4C73.9 19.4 73.9 17.7 74 17.7C105.4 14.1 209.9 10.6 277.9 10.6C337.4 10.6 388.2 13.2 430.2 17.7C444.9 19.3 457 29.7 460.8 44L470.2 79.7C474.1 94.4 476 109.5 476 124.6V220.5L487.8 220.6V117C487.7 101.9 485.7 86.8 481.9 72.1Z" fill="#8E63AD"/>
</g>
<path d="M479.9 73.1L470.5 37.4C466.8 23.1 454.6 12.7 439.9 11.1C397.9 6.60001 347 4 287.6 4C219.6 4 115.1 9.19999 83.7 12.8C78 13.4 73.1 17.1 70.8 22.4L51.9 66.6C43.2 82.2 37.9 99.4 36.4 117.2L36 216.6L57.1 217C57 215.6 56.9 214.2 56.9 212.8C56.9 181.9 81.9 156.9 112.8 156.9C143.7 156.9 168.7 181.9 168.7 212.8C168.7 214.6 168.6 216.4 168.4 218.1L315.4 219.9C315.1 217.6 314.9 215.2 314.9 212.8C314.9 181.9 339.9 156.9 370.8 156.9C401.7 156.9 426.7 181.9 426.7 212.8C426.7 215.6 426.5 218.3 426.1 221L485.4 221.6V118C485.7 102.9 483.7 87.8 479.9 73.1Z" stroke="#523160" stroke-width="8" stroke-miterlimit="10" stroke-linecap="round" stroke-linejoin="round"/>
<path d="M371 258.7C345.7 258.7 325.1 238.1 325.1 212.8C325.1 187.5 345.7 166.9 371 166.9C396.3 166.9 416.9 187.5 416.9 212.8C416.9 238.1 396.3 258.7 371 258.7Z" fill="#5C3F6B"/>
<path d="M371 258.7C345.7 258.7 325.1 238.1 325.1 212.8C325.1 187.5 345.7 166.9 371 166.9C396.3 166.9 416.9 187.5 416.9 212.8C416.9 238.1 396.3 258.7 371 258.7Z" stroke="#523160" stroke-width="8" stroke-miterlimit="10" stroke-linecap="round" stroke-linejoin="round"/>
<path d="M371 236.8C357.8 236.8 347 226 347 212.8C347 199.6 357.8 188.8 371 188.8C384.2 188.8 395 199.6 395 212.8C395 226 384.2 236.8 371 236.8Z" fill="#FDC858"/>
<path d="M371 236.8C357.8 236.8 347 226 347 212.8C347 199.6 357.8 188.8 371 188.8C384.2 188.8 395 199.6 395 212.8C395 226 384.2 236.8 371 236.8Z" stroke="#523160" stroke-width="8" stroke-miterlimit="10" stroke-linecap="round" stroke-linejoin="round"/>
<path d="M371 220.7C366.6 220.7 363.1 217.1 363.1 212.8C363.1 208.4 366.7 204.9 371 204.9C375.4 204.9 378.9 208.5 378.9 212.8C378.9 217.1 375.4 220.7 371 220.7Z" fill="#FDC858"/>
<path d="M371 220.7C366.6 220.7 363.1 217.1 363.1 212.8C363.1 208.4 366.7 204.9 371 204.9C375.4 204.9 378.9 208.5 378.9 212.8C378.9 217.1 375.4 220.7 371 220.7Z" stroke="#523160" stroke-width="8" stroke-miterlimit="10" stroke-linecap="round" stroke-linejoin="round"/>
<path d="M36 225.5H25.1C20.6 225.5 17 221.9 17 217.4V185.1C17 180.6 20.6 177 25.1 177H36V225.5Z" fill="white"/>
<path d="M36 225.5H25.1C20.6 225.5 17 221.9 17 217.4V185.1C17 180.6 20.6 177 25.1 177H36V225.5Z" stroke="#523160" stroke-width="8" stroke-miterlimit="10" stroke-linecap="round" stroke-linejoin="round"/>
<path d="M37.5999 164H33.5999C30.5999 164 28.2 161.6 28.2 158.6V133.8C28.2 130.8 30.5999 128.4 33.5999 128.4H37.5999C40.5999 128.4 42.9999 130.8 42.9999 133.8V158.6C42.9999 161.6 40.5999 164 37.5999 164Z" fill="white"/>
<path d="M37.5999 164H33.5999C30.5999 164 28.2 161.6 28.2 158.6V133.8C28.2 130.8 30.5999 128.4 33.5999 128.4H37.5999C40.5999 128.4 42.9999 130.8 42.9999 133.8V158.6C42.9999 161.6 40.5999 164 37.5999 164Z" stroke="#523160" stroke-width="8" stroke-miterlimit="10" stroke-linecap="round" stroke-linejoin="round"/>
<path d="M493.3 233.2H450.3C445.3 233.2 441.3 229.2 441.3 224.2V217.2C441.3 212.2 445.3 208.2 450.3 208.2H493.3C498.3 208.2 502.3 212.2 502.3 217.2V224.2C502.3 229.1 498.2 233.2 493.3 233.2Z" fill="white"/>
<path d="M450.9 223.5C450.9 221 453 218.9 455.5 218.9H502.2V217.2C502.2 212.2 498.2 208.2 493.2 208.2H450.2C445.2 208.2 441.2 212.2 441.2 217.2V224.2C441.2 229.2 445.2 233.2 450.2 233.2H450.9V223.5Z" fill="#D8D8D8"/>
<path d="M493.3 233.2H450.3C445.3 233.2 441.3 229.2 441.3 224.2V217.2C441.3 212.2 445.3 208.2 450.3 208.2H493.3C498.3 208.2 502.3 212.2 502.3 217.2V224.2C502.3 229.1 498.2 233.2 493.3 233.2Z" stroke="#523160" stroke-width="8" stroke-miterlimit="10" stroke-linecap="round" stroke-linejoin="round"/>
<path d="M420.5 96.2999H374.2C368.9 96.2999 364.6 91.9999 364.6 86.6999V39.9999C364.6 34.6999 368.9 30.3999 374.2 30.3999H402.3C413.4 30.3999 422.8 38.4999 424.5 49.4999L429.9 85.1999C430.9 91.0999 426.4 96.2999 420.5 96.2999Z" fill="#FDC858"/>
<path opacity="0.56" d="M384.2 51.5C384.2 46.2 388.5 41.9 393.8 41.9H421.9C418 35 410.6 30.5 402.3 30.5H374.2C368.9 30.5 364.6 34.8 364.6 40.1V86.8C364.6 92.1 368.9 96.4 374.2 96.4H384.2V51.5Z" fill="#FDC858"/>
<path d="M420.5 96.2999H374.2C368.9 96.2999 364.6 91.9999 364.6 86.6999V39.9999C364.6 34.6999 368.9 30.3999 374.2 30.3999H402.3C413.4 30.3999 422.8 38.4999 424.5 49.4999L429.9 85.1999C430.9 91.0999 426.4 96.2999 420.5 96.2999Z" stroke="#523160" stroke-width="8" stroke-miterlimit="10" stroke-linecap="round" stroke-linejoin="round"/>
<path d="M333.8 95.2999H231.6C226.3 95.2999 222 90.9999 222 85.6999V38.9999C222 33.6999 226.3 29.3999 231.6 29.3999H333.8C339.1 29.3999 343.4 33.6999 343.4 38.9999V85.6999C343.3 90.9999 339.1 95.2999 333.8 95.2999Z" fill="#FDC858"/>
<path opacity="0.56" d="M240.5 49.2999C240.5 43.9999 244.8 39.6999 250.1 39.6999H343.3V38.9999C343.3 33.6999 339 29.3999 333.7 29.3999H231.6C226.3 29.3999 222 33.6999 222 38.9999V85.6999C222 90.9999 226.3 95.2999 231.6 95.2999H240.6V49.2999H240.5Z" fill="#FDC858"/>
<path d="M333.8 95.2999H231.6C226.3 95.2999 222 90.9999 222 85.6999V38.9999C222 33.6999 226.3 29.3999 231.6 29.3999H333.8C339.1 29.3999 343.4 33.6999 343.4 38.9999V85.6999C343.3 90.9999 339.1 95.2999 333.8 95.2999Z" stroke="#523160" stroke-width="8" stroke-miterlimit="10" stroke-linecap="round" stroke-linejoin="round"/>
<path d="M175.5 96.3H79.2C73.8 96.3 69.9 90.3 71.4 84.2L82.5 37.5C83.5 33.4 86.7 30.5 90.3 30.5H175.5C180 30.5 183.6 34.8 183.6 40.1V86.8C183.7 92 180 96.3 175.5 96.3Z" fill="#FDC858"/>
<path opacity="0.56" d="M89.4001 93.9999L100.5 47.2999C101.5 43.1999 104.7 40.2999 108.3 40.2999H183.6V39.9999C183.6 34.6999 180 30.3999 175.5 30.3999H90.3001C86.7001 30.3999 83.5001 33.2999 82.5001 37.3999L71.4001 84.0999C70.0001 90.1999 73.8001 96.1999 79.2001 96.1999H89.1001C89.2001 95.4999 89.3001 94.7999 89.4001 93.9999Z" fill="#FDC858"/>
<path d="M175.5 96.3H79.2C73.8 96.3 69.9 90.3 71.4 84.2L82.5 37.5C83.5 33.4 86.7 30.5 90.3 30.5H175.5C180 30.5 183.6 34.8 183.6 40.1V86.8C183.7 92 180 96.3 175.5 96.3Z" stroke="#523160" stroke-width="8" stroke-miterlimit="10" stroke-linecap="round" stroke-linejoin="round"/>
<path opacity="0.48" d="M185.4 8.69995C196.8 8.69995 206 17.8999 206 29.2999V218.5" stroke="#523160" stroke-width="2" stroke-miterlimit="10" stroke-linecap="round" stroke-linejoin="round"/>
<path d="M158.8 120.3H188.8" stroke="#523160" stroke-width="8" stroke-miterlimit="10" stroke-linecap="round" stroke-linejoin="round"/>
<path d="M314.5 118H340.1" stroke="#523160" stroke-width="8" stroke-miterlimit="10" stroke-linecap="round" stroke-linejoin="round"/>
<path d="M488.3 187.5H484.4V92H488.3C494.9 92 500.3 97.4 500.3 104V175.5C500.3 182.1 494.9 187.5 488.3 187.5Z" fill="#D8D8D8"/>
<path d="M488.3 187.5H484.4V92H488.3C494.9 92 500.3 97.4 500.3 104V175.5C500.3 182.1 494.9 187.5 488.3 187.5Z" stroke="#523160" stroke-width="8" stroke-miterlimit="10" stroke-linecap="round" stroke-linejoin="round"/>
<path d="M441.3 40.5H453.4" stroke="#523160" stroke-width="8" stroke-miterlimit="10" stroke-linecap="round" stroke-linejoin="round"/>
<path d="M446.3 57.7H458.4" stroke="#523160" stroke-width="8" stroke-miterlimit="10" stroke-linecap="round" stroke-linejoin="round"/>
<path d="M451 74.8H463.1" stroke="#523160" stroke-width="8" stroke-miterlimit="10" stroke-linecap="round" stroke-linejoin="round"/>
<path d="M453 92H465.2" stroke="#523160" stroke-width="8" stroke-miterlimit="10" stroke-linecap="round" stroke-linejoin="round"/>
<path d="M306.8 224.7H177.5C172.1 224.7 167.8 220.4 167.8 215C167.8 209.6 172.1 205.3 177.5 205.3H306.8C312.2 205.3 316.5 209.6 316.5 215C316.5 220.3 312.2 224.7 306.8 224.7Z" fill="white"/>
<path d="M306.8 224.7H177.5C172.1 224.7 167.8 220.4 167.8 215C167.8 209.6 172.1 205.3 177.5 205.3H306.8C312.2 205.3 316.5 209.6 316.5 215C316.5 220.3 312.2 224.7 306.8 224.7Z" fill="white"/>
<path d="M316.5 205.3H167.8V215H316.5V205.3Z" fill="#D8D8D8"/>
<path d="M306.8 224.7H177.5C172.1 224.7 167.8 220.4 167.8 215C167.8 209.6 172.1 205.3 177.5 205.3H306.8C312.2 205.3 316.5 209.6 316.5 215C316.5 220.3 312.2 224.7 306.8 224.7Z" stroke="#523160" stroke-width="8" stroke-miterlimit="10" stroke-linecap="round" stroke-linejoin="round"/>
<path d="M98.2 71.5001L117.8 51.8" stroke="#523160" stroke-width="4" stroke-miterlimit="10" stroke-linecap="round" stroke-linejoin="round"/>
<path d="M114.8 73.2999L141.2 46.7" stroke="#523160" stroke-width="4" stroke-miterlimit="10" stroke-linecap="round" stroke-linejoin="round"/>
<path d="M250.5 69.1999L270 49.3999" stroke="#523160" stroke-width="4" stroke-miterlimit="10" stroke-linecap="round" stroke-linejoin="round"/>
<path d="M267.1 70.9999L293.5 44.3999" stroke="#523160" stroke-width="4" stroke-miterlimit="10" stroke-linecap="round" stroke-linejoin="round"/>
<path d="M377.3 71.1L393.4 54.8" stroke="#523160" stroke-width="4" stroke-miterlimit="10" stroke-linecap="round" stroke-linejoin="round"/>
<path d="M391 72.6001L412.7 50.6001" stroke="#523160" stroke-width="4" stroke-miterlimit="10" stroke-linecap="round" stroke-linejoin="round"/>
<path d="M527 258.7H249" stroke="#523160" stroke-width="8" stroke-miterlimit="10" stroke-linecap="round" stroke-linejoin="round"/>
<path d="M252.7 258.7H219" stroke="#523160" stroke-width="8" stroke-miterlimit="10" stroke-linecap="round" stroke-linejoin="round"/>
</svg>
